<?xml version="1.0" standalone="no"?>
<!DOCTYPE svg PUBLIC "-//W3C//DTD SVG 20010904//EN"
 "http://www.w3.org/TR/2001/REC-SVG-20010904/DTD/svg10.dtd">
<svg version="1.0" xmlns="http://www.w3.org/2000/svg"
 width="2255.000000pt" height="2255.000000pt" viewBox="0 0 2255.000000 2255.000000"
 preserveAspectRatio="xMidYMid meet">
<metadata>
Created by potrace 1.11, written by Peter Selinger 2001-2013
</metadata>
<g transform="translate(0.000000,2255.000000) scale(0.100000,-0.100000)"
fill="#000000" stroke="none">
<path d="M2371 22483 c-1 -32 -4 -74 -6 -93 -3 -19 -7 -57 -11 -85 -3 -27 -7
-57 -8 -65 -7 -52 -50 -210 -58 -210 -5 0 -7 -4 -4 -9 3 -5 -2 -26 -11 -47 -9
-22 -16 -42 -15 -46 1 -3 -5 -11 -13 -18 -7 -6 -11 -18 -8 -26 3 -8 0 -14 -6
-14 -6 0 -11 -9 -11 -20 0 -11 -4 -20 -8 -20 -4 0 -8 -10 -9 -22 -1 -11 -6
-24 -10 -27 -4 -3 -9 -10 -10 -16 -1 -5 -19 -53 -39 -105 -20 -52 -38 -102
-40 -110 -2 -8 -14 -52 -28 -97 -14 -46 -27 -95 -30 -110 -3 -16 -7 -39 -11
-53 -7 -35 -17 -81 -20 -105 -2 -11 -6 -36 -10 -57 -3 -20 -7 -55 -9 -77 l-3
-40 66 -22 c36 -12 75 -27 86 -32 11 -6 22 -12 25 -12 38 -9 60 -19 60 -27 0
-5 5 -6 10 -3 6 3 10 1 10 -6 0 -7 3 -10 6 -6 9 8 179 -82 199 -106 6 -7 17
-13 25 -15 8 -2 25 -14 38 -28 14 -13 28 -24 32 -24 4 0 28 -20 53 -44 25 -24
48 -42 50 -40 2 2 17 -12 33 -32 16 -20 41 -50 57 -66 15 -16 27 -31 27 -33 0
-5 26 -37 48 -60 6 -8 12 -18 12 -24 0 -6 4 -11 8 -11 8 0 36 -51 32 -59 -1
-2 2 -7 7 -10 19 -14 91 -177 109 -246 10 -40 11 -44 14 -50 1 -3 3 -9 4 -14
0 -5 4 -13 9 -17 4 -4 7 13 8 37 0 24 2 53 5 64 12 60 3 565 -11 615 -2 8 -6
44 -10 80 -5 62 -8 88 -21 148 -3 15 -7 43 -9 64 -3 20 -11 62 -20 93 -8 32
-12 62 -9 66 3 5 1 9 -4 9 -5 0 -9 6 -9 13 0 6 -4 29 -8 50 -6 31 -4 37 9 37
9 0 21 -12 28 -27 6 -16 17 -41 24 -58 7 -16 10 -33 7 -38 -2 -4 1 -14 7 -22
7 -8 9 -15 5 -15 -4 0 -3 -6 2 -12 6 -7 14 -31 18 -53 5 -22 10 -44 11 -50 8
-25 52 -224 57 -255 3 -19 7 -42 10 -50 3 -8 9 -44 13 -80 7 -65 8 -76 18
-200 11 -125 6 -375 -10 -485 -3 -22 -7 -84 -9 -137 -3 -89 0 -112 31 -243 3
-11 6 -27 8 -35 6 -29 37 -21 114 27 42 26 80 47 85 45 4 -1 7 2 7 7 0 4 18
20 39 34 22 14 51 38 65 52 14 14 30 25 36 25 5 0 10 4 10 9 0 5 26 36 58 69
75 78 112 122 125 150 6 12 13 22 16 22 4 0 15 16 25 35 11 19 23 35 28 35 5
0 7 4 3 9 -3 5 2 17 11 25 8 9 13 16 9 16 -3 0 5 19 18 43 24 40 53 118 48
126 -2 2 2 7 8 10 5 4 12 19 15 34 2 14 7 30 10 35 6 10 16 55 21 92 2 14 6
43 10 65 10 56 11 310 2 370 -5 28 -10 66 -13 85 -3 19 -12 57 -19 83 -8 27
-14 52 -13 55 1 4 -1 14 -5 22 -3 8 -14 44 -25 80 -11 36 -23 73 -27 83 -7 16
427 17 9019 17 l9027 0 -3 -8112 c-2 -4462 -4 -9136 -6 -10386 l-2 -2272
-10381 2 -10382 3 1 2470 c0 2362 -1 2472 -18 2527 -10 31 -23 65 -29 76 -6
10 -13 33 -16 49 -4 27 -42 122 -66 165 -5 10 -9 23 -9 29 0 11 -45 112 -79
179 -18 34 -17 48 6 110 3 8 8 24 10 35 3 17 56 179 70 215 3 8 7 20 9 27 6
29 46 149 55 166 5 10 7 22 4 27 -3 5 -1 11 4 14 13 8 18 -1 25 -44 3 -19 8
-51 11 -70 15 -93 23 -95 23 -5 0 52 -7 111 -15 139 -14 43 -14 55 0 110 18
72 21 120 7 111 -5 -3 -12 -21 -16 -40 -3 -19 -10 -35 -16 -35 -5 0 -6 -4 -3
-10 3 -5 -1 -10 -9 -10 -10 0 -16 9 -16 24 0 34 -10 56 -25 56 -10 0 -8 -15 7
-64 l21 -63 -21 -44 c-37 -78 -102 -236 -102 -248 0 -6 -5 -11 -12 -11 -6 0
-9 -3 -5 -6 3 -4 -5 -28 -18 -55 -14 -27 -27 -56 -29 -66 -1 -10 -10 -35 -20
-55 -9 -21 -16 -43 -16 -50 0 -7 -14 12 -31 42 -71 125 -84 131 -46 18 36
-102 41 -147 22 -192 -15 -36 -35 -41 -35 -8 0 9 -7 35 -14 57 -13 37 -26 92
-28 123 -1 6 -5 12 -10 12 -5 0 -7 3 -5 8 3 4 1 16 -4 27 -4 11 -8 -1396 -8
-3127 l-1 -3148 10850 0 10850 0 0 1565 0 1565 73 2 72 2 -67 3 -68 4 0 9344
0 9345 -32 0 c-18 0 -4264 0 -9435 0 l-9403 0 -100 98 c-127 124 -180 173
-180 166 0 -3 -11 5 -24 18 -13 13 -34 30 -46 38 -13 8 -32 23 -42 33 -10 9
-21 17 -25 17 -3 0 -21 11 -39 25 -19 14 -37 26 -41 27 -5 0 -21 11 -36 24
-16 13 -34 24 -42 24 -7 0 -16 7 -19 16 -4 9 -9 14 -13 11 -3 -3 -26 8 -51 25
-25 17 -42 25 -38 17 4 -8 0 -5 -8 5 -9 11 -16 16 -16 12 0 -4 -13 2 -29 13
-16 12 -32 21 -36 21 -14 0 -105 45 -105 52 0 4 -6 5 -14 2 -7 -3 -21 2 -30
11 -9 9 -16 14 -16 11 0 -4 -16 1 -36 9 -20 8 -45 15 -55 15 -11 0 -19 5 -19
10 0 6 -11 10 -24 10 -21 0 -23 -4 -25 -57z m-1555 -16598 c-2 -7 -2 -16 2
-19 3 -4 7 -17 9 -29 2 -12 12 -59 23 -105 24 -102 32 -139 36 -172 1 -14 3
-25 4 -25 3 0 5 -16 40 -240 18 -115 19 -145 9 -170 l-12 -30 -8 35 c-9 41
-19 109 -23 165 -2 22 -5 41 -6 43 -1 1 -4 14 -5 30 -1 15 -5 45 -9 67 -13 71
-35 219 -41 265 -6 59 -9 73 -18 88 -13 19 -24 14 -37 -18 -7 -17 -15 -28 -18
-25 -8 8 42 164 51 158 5 -3 6 -11 3 -18z m-8 -153 c-1 -15 2 -37 6 -50 5 -14
3 -22 -4 -22 -6 0 -8 5 -5 10 3 6 1 10 -4 10 -6 0 -11 -13 -11 -30 0 -16 -4
-30 -10 -30 -15 0 -12 40 6 93 18 54 23 58 22 19z m12 -149 c0 -38 1 -101 3
-140 2 -40 -1 -73 -5 -73 -4 0 -8 -8 -9 -17 0 -13 -3 -11 -10 6 -12 29 -8 211
5 211 4 0 6 18 4 40 -2 22 0 40 4 40 5 0 8 -30 8 -67z m15 -306 c1 -19 -2 -41
-7 -48 -8 -11 -9 -10 -4 4 3 9 2 17 -2 17 -7 0 -9 35 -4 64 4 19 13 -3 17 -37z
m-11 -187 c2 -14 5 -25 6 -25 5 0 11 -83 10 -155 0 -89 -2 -109 -11 -125 -4
-5 -9 -22 -13 -37 -13 -55 -26 -27 -28 60 -4 122 1 320 9 362 l6 35 9 -45 c4
-25 10 -56 12 -70z m143 -87 c1 -32 4 -88 6 -125 1 -37 0 -65 -4 -62 -4 2 -8
12 -7 22 0 9 -2 31 -5 47 -15 80 -18 113 -12 143 9 50 20 38 22 -25z"/>
<path d="M1268 21015 c-3 -3 -33 -7 -143 -20 -39 -5 -80 -12 -168 -31 -93 -20
-92 -20 -157 -37 -55 -15 -74 -21 -107 -34 -24 -8 -46 -14 -60 -15 -7 -1 -13
-5 -13 -10 0 -4 -3 -7 -7 -6 -5 0 -17 -3 -28 -7 -11 -4 -42 -17 -70 -28 -27
-10 -59 -23 -70 -27 -11 -4 -24 -8 -29 -8 -5 0 -12 -4 -15 -9 -6 -9 -74 -48
-78 -45 -5 3 -220 -122 -236 -137 -8 -8 33 -61 46 -61 14 0 237 -234 237 -249
0 -5 4 -11 8 -13 13 -5 90 -125 124 -192 17 -33 41 -77 54 -98 13 -21 22 -38
20 -38 -3 0 10 -22 27 -49 36 -56 86 -135 103 -163 6 -11 21 -30 33 -44 11
-13 18 -24 16 -24 -3 0 6 -12 20 -27 14 -16 38 -46 53 -68 15 -21 53 -66 85
-98 31 -33 57 -62 57 -66 0 -4 11 -14 25 -21 13 -7 22 -17 19 -22 -3 -4 -1 -8
3 -8 5 0 32 -22 61 -49 28 -26 54 -46 57 -43 3 3 5 0 5 -6 0 -7 7 -12 15 -12
8 0 15 -4 15 -9 0 -8 163 -121 175 -121 4 0 19 -9 33 -19 15 -10 29 -19 32
-18 3 0 23 -9 45 -20 46 -23 116 -48 128 -45 4 1 7 -3 7 -9 0 -5 5 -7 10 -4 6
3 10 1 10 -6 0 -7 3 -10 6 -6 3 3 24 -1 46 -9 23 -8 43 -12 46 -10 2 3 14 1
26 -4 21 -8 39 -11 146 -29 25 -4 113 -6 195 -4 189 4 215 6 215 17 0 4 6 6
14 3 8 -3 38 1 68 9 29 8 64 16 78 19 14 2 51 13 82 24 31 11 59 17 62 14 3
-4 6 -1 6 6 0 7 4 10 9 6 5 -3 12 -1 15 4 3 5 18 12 33 16 32 8 176 77 184 88
3 5 10 9 15 9 5 0 20 9 34 20 17 13 21 21 12 25 -7 2 -19 11 -27 20 -8 8 -15
12 -15 8 0 -11 -164 86 -218 130 -7 5 -65 61 -130 123 -64 63 -135 128 -156
145 -22 18 -56 48 -78 68 -21 20 -38 35 -38 32 0 -2 -6 2 -13 9 -8 7 -29 24
-47 38 -18 14 -39 31 -46 38 -7 6 -17 12 -22 12 -6 0 -12 3 -14 8 -3 7 -41 35
-184 134 -28 20 -66 44 -85 53 -19 10 -36 21 -39 24 -5 6 -97 57 -137 76 -13
5 -23 14 -23 18 0 5 -4 5 -10 2 -5 -3 -10 -1 -10 4 0 6 -3 10 -7 9 -5 -1 -52
19 -106 45 -55 26 -103 47 -108 47 -5 0 -9 4 -9 8 0 5 -6 9 -13 9 -20 0 -107
37 -107 45 0 14 23 20 43 11 12 -6 40 -16 62 -22 22 -7 49 -16 60 -21 11 -5
49 -19 85 -31 106 -36 452 -199 465 -219 3 -6 10 -8 14 -6 4 3 17 -3 28 -14
12 -10 23 -17 26 -14 2 2 10 -2 17 -11 7 -8 19 -15 26 -15 8 0 14 -3 14 -8 0
-4 20 -18 45 -31 25 -13 45 -28 45 -32 0 -5 6 -9 13 -9 7 0 22 -8 33 -18 10
-9 54 -44 97 -77 43 -33 93 -71 110 -85 18 -14 80 -73 139 -132 59 -60 114
-108 122 -108 7 0 16 -6 19 -14 6 -15 184 -106 209 -106 22 0 25 5 32 64 20
146 24 275 11 366 -4 30 -9 69 -11 85 -3 26 -25 129 -38 175 -2 8 -11 33 -19
55 -17 45 -28 79 -28 82 1 8 -77 147 -107 193 -45 65 -62 87 -127 158 -27 29
-54 60 -58 68 -4 8 -12 14 -17 14 -4 0 -24 15 -44 33 -49 44 -103 87 -109 87
-3 0 -32 17 -64 38 -32 21 -71 44 -88 52 -16 8 -33 19 -37 25 -4 5 -8 7 -8 3
0 -4 -25 6 -55 23 -30 16 -55 28 -55 25 0 -3 -24 5 -54 18 -30 13 -57 22 -60
18 -3 -3 -6 0 -6 6 0 7 -3 11 -7 10 -9 -2 -84 18 -123 32 -24 9 -75 18 -130
25 -14 2 -25 4 -25 5 0 9 -427 24 -437 15z"/>
<path d="M19223 13195 c-282 -51 -505 -215 -712 -524 -137 -204 -230 -427
-304 -726 -51 -204 -80 -384 -92 -575 -4 -47 -8 -101 -11 -120 -6 -43 -5 -514
1 -590 2 -30 7 -84 10 -120 11 -137 33 -298 55 -404 6 -28 12 -60 14 -71 20
-103 94 -345 133 -435 199 -460 467 -744 805 -854 43 -14 103 -28 135 -31 l58
-7 -2 163 c0 90 -1 169 -2 174 -1 6 -14 16 -30 23 -91 40 -141 142 -158 314
-9 105 -10 3060 0 3150 11 99 42 173 96 227 25 26 57 54 70 62 24 15 24 17 24
170 -1 188 -1 189 -10 188 -5 0 -40 -7 -80 -14z"/>
<path d="M19490 13035 l0 -172 46 -29 c25 -16 55 -42 68 -59 31 -42 63 -122
73 -181 10 -61 11 -3131 1 -3199 -12 -80 -37 -166 -60 -204 -26 -45 -74 -90
-105 -97 -22 -6 -23 -10 -23 -95 -1 -49 -1 -126 -1 -171 l-1 -83 32 -3 c48 -5
215 46 310 95 344 176 614 570 759 1103 20 73 46 191 55 247 2 16 8 48 11 73
4 25 9 53 10 62 2 9 7 48 10 85 4 37 9 76 11 86 17 94 24 610 11 806 -24 343
-85 661 -178 921 -42 115 -157 348 -217 440 -211 318 -462 500 -745 538 l-67
9 0 -172z"/>
<path d="M3067 13083 c-3 -21 -15 -93 -27 -161 -11 -68 -19 -131 -16 -140 5
-18 10 -50 27 -167 5 -38 16 -110 24 -160 17 -107 63 -403 76 -495 5 -36 12
-76 14 -90 2 -14 16 -101 30 -195 28 -184 33 -217 40 -255 2 -14 7 -43 10 -65
3 -22 7 -51 10 -65 2 -14 7 -43 10 -65 11 -76 44 -292 49 -321 6 -35 23 -145
31 -199 3 -23 7 -50 9 -60 3 -19 13 -78 21 -135 2 -14 7 -47 11 -75 3 -27 7
-52 9 -55 2 -3 6 -33 10 -67 l7 -63 -239 -2 -238 -3 -12 -70 c-6 -38 -14 -86
-17 -105 -15 -100 -19 -117 -34 -135 -16 -18 -16 -19 0 -6 17 12 17 11 12 -18
l-6 -31 288 -1 c159 -1 294 -1 300 0 6 1 11 -5 11 -11 1 -7 6 -47 13 -88 14
-96 19 -126 25 -176 3 -22 12 -78 20 -125 28 -160 15 -249 -46 -303 -16 -14
-32 -25 -36 -24 -5 2 -9 -1 -11 -7 -2 -5 -12 -19 -22 -30 -58 -62 -53 -206 10
-258 16 -14 26 -27 23 -31 -11 -10 1170 -7 1209 4 24 7 48 24 65 47 25 32 28
45 28 108 -1 81 -16 110 -86 156 -44 29 -71 55 -87 85 -11 20 -46 178 -57 257
-3 27 -8 56 -10 65 -1 10 -8 51 -15 92 -6 41 -13 86 -16 100 -2 14 -13 84 -25
155 -22 141 -24 153 -33 205 -6 37 -44 277 -51 320 -2 14 -7 45 -11 70 -5 25
-9 50 -9 55 -1 11 -17 110 -40 245 -8 47 -16 101 -19 120 -3 19 -19 121 -36
225 -17 105 -33 201 -35 215 -2 14 -11 70 -20 125 -9 55 -18 111 -20 125 -12
77 -65 403 -80 495 -3 17 -10 59 -15 95 -18 110 -59 368 -85 525 -13 83 -29
182 -35 220 -17 112 -20 128 -26 158 l-6 27 -432 0 -433 0 -6 -37z"/>
<path d="M5385 13110 c3 -5 -4 -14 -16 -20 -32 -18 -56 -82 -54 -145 3 -62 18
-90 86 -162 68 -72 86 -112 146 -333 14 -52 31 -115 38 -140 8 -25 23 -79 35
-120 12 -41 30 -104 40 -140 30 -102 232 -812 240 -845 5 -16 38 -133 75 -260
36 -126 73 -255 81 -285 8 -30 24 -84 35 -120 19 -62 19 -92 17 -650 l-3 -586
-25 -48 c-23 -44 -32 -51 -93 -76 -89 -36 -115 -58 -131 -111 -28 -96 0 -187
70 -228 34 -20 46 -21 660 -21 692 0 658 -3 710 65 23 30 27 46 27 99 1 42 -6
78 -18 105 -15 35 -28 46 -84 72 -36 17 -77 36 -89 42 -13 6 -34 29 -45 52
-22 40 -22 43 -25 793 l-3 752 -74 248 c-65 221 -93 317 -101 347 -1 6 -18 62
-37 125 -30 99 -83 279 -157 530 -11 36 -47 157 -80 270 -60 200 -81 316 -67
372 4 13 35 53 70 89 65 66 87 115 87 186 -1 45 -36 111 -72 133 -32 19 -48
20 -641 19 -354 0 -605 -4 -602 -9z"/>
<path d="M7085 13110 c2 -4 -5 -16 -17 -26 -11 -11 -27 -33 -34 -51 -16 -37
-18 -130 -4 -167 10 -27 78 -96 94 -96 5 0 29 -16 53 -36 76 -62 102 -141 96
-294 -4 -109 -15 -169 -58 -305 -19 -60 -64 -209 -100 -330 -37 -121 -73 -239
-80 -261 -15 -45 -17 -36 56 -278 12 -37 22 -73 23 -80 4 -24 28 -87 32 -84 2
3 35 105 73 229 38 123 80 260 94 304 14 44 53 170 87 280 33 110 65 211 70
225 5 14 23 72 40 130 77 259 141 380 240 457 153 121 160 131 155 234 -4 69
-26 113 -68 140 -31 19 -49 19 -394 18 -200 -1 -361 -5 -358 -9z"/>
<path d="M8742 13112 c-58 -17 -103 -97 -96 -168 10 -102 30 -132 115 -174 61
-31 80 -56 94 -119 10 -45 9 -3318 0 -3362 -14 -63 -34 -88 -94 -119 -66 -33
-96 -68 -109 -126 -21 -103 13 -188 87 -213 24 -8 193 -11 556 -11 l522 0 0
2150 0 2150 -526 -1 c-289 -1 -536 -4 -549 -7z"/>
<path d="M9990 12947 l0 -175 37 -7 c126 -23 204 -125 238 -311 24 -125 24
-899 1 -987 -21 -77 -59 -150 -99 -188 -41 -38 -130 -72 -148 -55 -9 8 -10 8
-5 -1 4 -8 2 -13 -6 -13 -11 0 -13 -34 -13 -162 l0 -161 65 -23 c117 -42 194
-160 215 -329 11 -90 7 -1006 -5 -1078 -16 -103 -55 -189 -104 -235 -46 -43
-104 -67 -141 -59 -14 2 -22 0 -19 -4 3 -5 0 -9 -5 -9 -7 0 -11 -56 -11 -166
l0 -166 243 5 c259 6 335 16 457 64 199 78 385 273 475 498 69 173 96 328 96
554 1 299 -59 538 -181 723 -112 170 -258 274 -498 353 -46 15 -80 31 -75 35
4 4 40 18 78 32 315 115 482 286 579 595 14 43 27 92 30 108 4 17 9 41 11 55
18 89 23 284 11 397 -48 442 -286 749 -653 843 -125 31 -128 32 -355 37 l-218
5 0 -175z"/>
<path d="M12215 13101 c-66 -30 -92 -100 -74 -198 12 -63 42 -99 110 -133 72
-37 89 -66 98 -169 7 -90 6 -3264 -2 -3301 -14 -68 -35 -99 -89 -126 -93 -46
-115 -80 -122 -181 -3 -50 16 -106 45 -136 36 -35 74 -37 653 -37 534 0 574 2
612 19 67 31 96 124 68 219 -16 57 -36 78 -106 113 -59 30 -79 56 -93 118 -9
42 -10 3312 -1 3360 12 60 34 90 89 117 94 47 118 83 120 178 2 79 -22 130
-74 156 -37 19 -63 20 -616 20 -540 0 -581 -2 -618 -19z"/>
<path d="M14541 13102 c-61 -30 -76 -62 -76 -156 0 -72 3 -86 25 -114 14 -17
50 -43 81 -58 43 -20 63 -37 80 -68 l24 -41 0 -1690 c0 -1946 11 -1751 -99
-1805 -88 -44 -111 -81 -111 -181 0 -88 16 -121 76 -151 31 -17 82 -18 614
-18 653 0 633 -2 668 73 17 36 30 153 18 159 -3 2 -15 21 -26 43 -15 31 -34
47 -80 70 -46 24 -65 40 -80 70 -20 40 -20 60 -20 1725 0 1932 -9 1757 90
1806 99 48 132 104 123 212 -5 61 -29 99 -79 124 -31 17 -82 18 -614 18 -532
0 -583 -1 -614 -18z"/>
<path d="M16232 13105 c-43 -19 -71 -81 -72 -155 0 -80 22 -116 110 -176 41
-28 85 -66 98 -84 63 -93 74 -267 26 -415 -18 -55 -59 -141 -337 -715 -191
-395 -231 -481 -254 -550 -23 -68 -25 -85 -20 -185 5 -89 26 -215 62 -365 2
-8 26 -114 54 -235 28 -121 64 -281 81 -355 65 -283 120 -532 126 -564 7 -49
-18 -100 -63 -131 -53 -34 -82 -76 -92 -132 -19 -98 9 -171 75 -204 40 -19 59
-20 635 -17 554 3 596 4 621 21 38 26 60 80 60 146 0 76 -12 102 -69 147 -105
85 -94 56 -273 747 -21 84 -46 179 -55 212 -9 33 -36 139 -61 235 -25 96 -79
301 -119 455 -40 154 -114 440 -164 635 -51 195 -99 376 -106 402 l-14 47 114
228 c189 378 279 495 463 607 119 72 148 106 161 182 14 93 -8 168 -63 208
-27 20 -41 21 -459 23 -358 2 -438 0 -465 -12z"/>
<path d="M12273 12435 c0 -8 4 -12 9 -9 5 3 6 10 3 15 -9 13 -12 11 -12 -6z"/>
<path d="M2919 12294 c0 -10 -2 -28 -5 -39 -34 -169 -91 -483 -93 -512 -1 -17
-6 -21 -18 -17 -14 5 -15 4 -4 -4 9 -7 12 -20 7 -43 -4 -19 -7 -42 -7 -52 0
-9 -3 -16 -7 -13 -4 2 -7 -10 -7 -27 -1 -18 -4 -45 -7 -62 -11 -55 -39 -210
-45 -247 -3 -21 -8 -36 -12 -34 -3 2 -6 -10 -6 -27 -1 -18 -4 -45 -7 -62 -3
-16 -12 -65 -19 -107 -7 -42 -16 -75 -20 -72 -4 2 -5 -5 -2 -16 3 -11 2 -28
-2 -37 -5 -10 -7 -23 -6 -29 1 -7 -6 -40 -15 -75 -8 -35 -15 -71 -15 -79 -1
-19 -19 -120 -27 -140 -3 -8 -5 -18 -4 -21 1 -4 -3 -33 -9 -65 -6 -33 -13 -75
-16 -94 -3 -19 -8 -36 -13 -38 -4 -1 -5 -14 -2 -29 3 -14 1 -23 -4 -20 -5 3
-9 -9 -8 -26 0 -16 -5 -60 -13 -96 -8 -36 -16 -82 -19 -101 -3 -19 -7 -42 -9
-50 -3 -8 -7 -33 -11 -55 -3 -22 -9 -42 -13 -45 -3 -3 -7 -18 -7 -35 -1 -16
-4 -43 -7 -60 -3 -16 -6 -40 -6 -53 -1 -13 -5 -21 -9 -18 -5 3 -6 -8 -4 -25 2
-16 0 -29 -4 -29 -5 0 -10 -21 -11 -47 -1 -27 -6 -49 -11 -51 -5 -1 -7 -14 -4
-29 4 -19 2 -24 -8 -18 -9 5 -11 4 -6 -4 19 -31 -102 -319 -128 -304 -6 3 -8
2 -3 -2 7 -9 -60 -85 -75 -85 -4 0 -18 -9 -30 -20 -13 -10 -27 -20 -33 -22
-14 -3 -75 -69 -75 -80 0 -5 -4 -7 -9 -4 -5 4 -7 -4 -3 -16 4 -16 2 -19 -8
-13 -8 5 -11 4 -7 -1 3 -6 7 -37 9 -71 1 -35 7 -59 12 -56 5 4 6 -2 2 -13 -4
-10 -5 -16 -1 -13 3 3 23 -11 45 -32 l40 -38 332 -1 c299 0 337 2 368 17 53
27 72 73 67 159 -5 86 -17 105 -114 173 -160 112 -182 235 -110 606 21 105 46
237 57 295 11 58 42 229 71 380 28 151 53 286 55 300 2 14 9 45 14 70 8 38 25
128 46 250 3 14 16 86 30 160 15 74 28 146 30 160 4 24 7 39 19 100 3 14 8 41
11 60 3 19 9 52 14 73 7 34 -22 244 -66 477 -2 14 -7 41 -10 60 -19 128 -33
180 -35 134z"/>
<path d="M7035 11710 c-3 -5 -1 -10 4 -10 6 0 11 5 11 10 0 6 -2 10 -4 10 -3
0 -8 -4 -11 -10z"/>
<path d="M17986 11233 c-6 -14 -5 -15 5 -6 7 7 10 15 7 18 -3 3 -9 -2 -12 -12z"/>
<path d="M5801 8984 c0 -11 3 -14 6 -6 3 7 2 16 -1 19 -3 4 -6 -2 -5 -13z"/>
<path d="M6729 7388 c-1 -25 -7 -44 -40 -123 -17 -44 -32 -86 -32 -92 0 -7 -5
-13 -10 -13 -6 0 -8 -3 -5 -6 4 -3 -9 -49 -28 -102 -18 -53 -34 -102 -34 -109
0 -6 -5 -24 -12 -40 -6 -15 -13 -41 -15 -58 -3 -16 -7 -32 -9 -34 -3 -4 2 175
9 272 1 21 -1 43 -5 50 -5 8 -8 8 -8 1 0 -6 -7 -51 -16 -100 -13 -76 -21 -141
-26 -204 0 -8 -7 -49 -15 -90 -7 -41 -18 -106 -24 -145 -6 -38 -13 -86 -16
-105 -3 -19 -6 -45 -7 -57 -2 -36 -12 -27 -43 33 -15 30 -36 64 -45 74 -10 11
-18 26 -18 35 0 8 -4 15 -8 15 -4 0 -25 30 -45 68 -48 85 -60 106 -69 112 -4
3 -7 14 -8 25 -1 47 -5 65 -13 65 -5 0 -7 6 -4 14 3 8 3 17 -1 20 -3 4 -7 17
-9 29 -5 33 -11 47 -22 47 -5 0 -8 -12 -5 -27 5 -27 7 -38 20 -85 5 -19 4 -21
-7 -10 -28 26 -27 10 1 -39 28 -46 46 -103 55 -171 2 -15 8 -44 14 -65 35
-134 48 -192 56 -243 6 -39 15 -80 31 -143 14 -56 14 -58 -11 -102 -13 -25
-23 -45 -20 -45 2 0 -5 -21 -16 -47 -12 -27 -25 -59 -31 -73 -9 -23 -14 -15
-53 83 -24 60 -64 150 -89 201 -26 52 -46 98 -46 105 0 6 -10 11 -23 11 -20 0
-25 -12 -56 -122 -19 -67 -35 -130 -36 -140 -3 -37 -22 -41 -35 -6 -20 51 -13
125 20 208 24 60 26 81 7 60 -22 -24 -67 -107 -61 -112 3 -3 -2 -8 -11 -12
-11 -4 -17 2 -22 24 -3 17 -10 30 -15 30 -5 0 -7 4 -4 8 3 5 -9 37 -26 73 -17
35 -31 70 -31 77 0 6 -3 12 -7 12 -4 0 -7 6 -7 13 -1 16 -46 120 -55 127 -3 3
-10 19 -14 35 -4 17 -18 51 -32 77 l-24 48 20 65 c15 50 17 65 7 65 -8 0 -16
-17 -20 -40 -4 -22 -10 -40 -14 -40 -9 0 -81 150 -81 167 0 6 -11 31 -25 54
-24 42 -25 42 -22 14 2 -17 9 -40 16 -52 14 -26 65 -184 76 -230 3 -18 2 -48
-5 -67 -6 -18 -13 -42 -15 -52 -6 -25 -39 -119 -58 -164 -8 -19 -12 -41 -10
-47 3 -7 0 -13 -7 -13 -6 0 -8 -4 -5 -10 6 -10 -23 -75 -31 -68 -2 3 -4 15 -5
29 0 13 -7 141 -15 284 -8 143 -14 268 -14 278 0 9 -3 17 -7 17 -5 0 -8 -57
-7 -127 2 -273 -16 -696 -32 -751 -8 -29 -17 -61 -19 -71 -2 -10 -20 -66 -40
-125 -20 -58 -37 -115 -38 -126 -1 -11 -4 -20 -7 -20 -3 0 -6 -10 -7 -21 -3
-35 -18 -42 -35 -17 -25 39 -30 76 -13 108 20 38 19 43 -5 30 -11 -6 -20 -7
-21 -3 -2 23 -10 60 -16 73 -9 21 -8 19 -17 77 -4 29 -12 56 -17 59 -12 7 0
-129 17 -201 2 -11 -5 -4 -16 15 -49 84 -91 158 -111 196 l-21 40 32 75 c18
41 36 76 39 79 4 3 15 23 25 45 10 22 25 48 34 58 9 10 11 17 4 17 -10 0 -104
-117 -145 -181 -11 -16 -22 -29 -25 -29 -17 0 -66 122 -76 187 -4 24 -16 26
-16 3 0 -13 -3 -21 -6 -17 -7 6 -6 82 2 197 3 36 6 106 9 155 8 174 16 281 25
334 9 49 7 72 -4 60 -6 -5 -58 -282 -61 -318 -1 -14 -7 -27 -14 -29 -9 -3 -11
16 -8 82 3 69 1 86 -10 86 -8 0 -12 -4 -8 -9 4 -8 -80 -279 -90 -289 -2 -2
-15 13 -28 35 -18 27 -27 58 -31 108 -10 110 -18 155 -25 155 -4 0 -7 -27 -6
-60 0 -67 -9 -79 -20 -24 -8 46 -26 84 -38 84 -5 0 -6 -12 -2 -27 l7 -28 -27
29 c-21 22 -31 50 -44 119 -17 89 -30 101 -24 22 3 -38 5 -76 17 -250 3 -44
10 -132 16 -195 5 -63 12 -174 15 -246 2 -72 7 -139 11 -148 12 -30 -2 -140
-26 -203 -12 -35 -26 -63 -30 -63 -4 0 -15 16 -26 35 -10 19 -22 35 -26 35 -5
0 -8 5 -8 10 0 6 -5 16 -10 23 -6 7 -34 48 -63 92 -28 44 -60 89 -70 100 -26
29 -29 54 -13 110 9 27 13 51 11 53 -6 7 -26 -9 -21 -17 3 -4 -5 -20 -18 -35
l-22 -28 -27 41 c-28 41 -41 49 -52 31 -14 -23 -27 -9 -21 23 3 17 10 82 16
142 16 154 19 180 21 180 5 0 4 87 -2 90 -7 5 -19 -58 -25 -135 -4 -43 -8 -80
-18 -145 -2 -16 -10 -73 -17 -125 -7 -52 -18 -100 -24 -106 -5 -6 -37 -47 -70
-92 l-60 -82 -27 32 c-15 18 -31 42 -34 53 -4 11 -40 75 -80 142 -41 67 -74
124 -74 127 0 3 -18 33 -40 67 -37 57 -43 80 -28 104 3 6 27 75 52 155 26 80
51 154 56 165 23 48 39 110 31 118 -5 5 -14 -8 -21 -30 -7 -21 -15 -42 -19
-48 -3 -5 -6 -12 -7 -15 0 -3 -6 -16 -12 -30 -5 -14 -24 -56 -40 -95 -16 -38
-40 -92 -53 -120 -13 -27 -23 -53 -24 -57 0 -14 -19 -11 -27 3 -4 8 -24 61
-45 119 -24 66 -39 97 -41 83 -2 -12 2 -31 8 -42 7 -14 7 -21 0 -21 -5 0 -10
5 -10 11 0 15 -41 71 -48 65 -2 -3 1 -12 8 -21 7 -8 10 -15 7 -15 -4 0 12 -34
34 -75 23 -41 47 -105 55 -143 15 -71 14 -76 -27 -167 -10 -22 -32 -74 -49
-115 -49 -119 -73 -170 -78 -166 -2 2 1 14 8 25 6 12 13 38 15 59 2 20 5 38 6
40 1 1 2 5 3 10 1 4 5 13 10 20 10 16 -1 29 -13 16 -5 -5 -25 -42 -46 -82 -20
-39 -42 -75 -47 -78 -12 -7 -49 36 -42 47 2 4 1 9 -3 11 -5 1 -20 25 -35 53
-26 49 -59 78 -44 39 5 -11 9 -26 11 -34 2 -8 4 -17 5 -20 1 -3 2 -8 1 -12 0
-3 6 -28 14 -54 17 -57 12 -72 -5 -17 -7 21 -15 43 -19 48 -3 6 -6 12 -7 15
-2 14 -27 69 -43 100 -11 19 -20 38 -20 43 -1 4 -2 9 -2 12 -1 3 -2 8 -3 13
-1 4 -14 33 -29 65 -27 55 -28 61 -16 115 6 31 36 105 65 165 29 59 49 107 43
107 -5 0 -15 -11 -21 -25 -6 -14 -15 -25 -20 -25 -4 0 -7 -5 -5 -11 1 -6 -5
-14 -13 -16 -9 -3 -11 -1 -5 4 11 8 21 73 11 73 -6 0 -46 -106 -52 -138 -7
-35 -35 -102 -44 -102 -4 0 -24 42 -45 93 -21 50 -50 119 -65 152 -15 33 -38
86 -50 118 -13 31 -27 57 -32 57 -10 0 -10 -7 2 -29 5 -10 11 -29 14 -42 3
-13 20 -65 39 -116 19 -51 32 -95 29 -98 -3 -3 0 -5 7 -5 7 0 10 -4 6 -9 -3
-5 6 -40 20 -78 38 -102 39 -106 3 -165 -18 -29 -37 -56 -43 -60 -5 -4 -6 -8
-2 -8 4 0 -6 -20 -22 -44 -17 -25 -36 -55 -41 -68 -6 -13 -19 -36 -30 -53 -10
-16 -39 -66 -63 -109 -24 -44 -48 -81 -53 -82 -5 -2 -41 41 -80 94 -66 88 -72
102 -78 157 -3 33 -9 74 -12 90 -3 17 -6 44 -8 60 -16 158 -35 273 -47 280 -4
3 -6 -11 -3 -32 2 -21 7 -60 10 -88 3 -27 7 -63 9 -80 2 -16 6 -63 9 -103 3
-41 8 -90 12 -110 5 -30 4 -35 -7 -24 -21 20 -35 14 -64 -28 -22 -32 -31 -38
-42 -29 -7 7 -11 14 -9 17 3 2 -1 11 -9 18 -7 8 -15 19 -18 26 -2 7 -7 11 -10
8 -3 -3 2 -31 10 -63 18 -62 13 -82 -29 -127 -27 -29 -138 -198 -138 -210 0
-5 -4 -10 -8 -10 -4 0 -16 -14 -27 -32 l-18 -32 -25 70 c-22 63 -36 187 -24
208 5 8 13 180 12 244 0 18 8 138 20 265 27 307 30 386 19 392 -5 4 -10 -9
-11 -27 -2 -35 -5 -60 -8 -68 -1 -3 -3 -19 -5 -36 -1 -19 -15 -45 -35 -65
l-32 -34 7 28 c14 53 -12 26 -32 -35 l-21 -63 -1 63 c-1 34 -5 62 -11 62 -5 0
-11 -10 -11 -22 -1 -13 -3 -45 -4 -73 -2 -27 -4 -51 -5 -52 -1 -2 -3 -16 -4
-31 -1 -27 -45 -122 -57 -122 -5 0 -40 99 -46 133 -2 10 -9 30 -17 45 -16 31
-31 91 -27 110 1 6 -4 12 -11 12 -10 0 -12 -24 -10 -107 2 -60 2 -106 -1 -103
-6 6 -54 240 -61 295 -6 52 -14 86 -21 93 -12 13 -14 -8 -6 -59 6 -30 12 -92
16 -139 3 -47 8 -103 10 -125 5 -39 15 -226 18 -335 1 -34 -3 -54 -10 -53 -5
1 -18 -28 -28 -65 -19 -68 -52 -142 -64 -142 -3 0 -16 15 -29 33 -13 17 -29
41 -37 52 -13 19 -14 17 -15 -22 0 -25 6 -48 16 -57 8 -9 13 -16 10 -16 -3 0
1 -12 9 -26 11 -23 10 -30 -11 -67 -21 -38 -24 -54 -24 -162 l0 -120 29 60
c44 90 54 99 47 45 -4 -25 -11 -97 -16 -160 -11 -126 -13 -140 -21 -155 -4 -5
-5 -18 -4 -27 2 -10 -1 -18 -6 -18 -6 0 -8 -4 -5 -8 3 -5 -2 -21 -10 -36 -12
-24 -14 -327 -14 -2227 l0 -2199 9963 0 9962 0 -1 2138 c-1 1175 -3 2142 -4
2147 -1 6 -1 15 0 20 7 27 5 433 -2 454 -5 14 -6 32 -2 40 10 22 11 392 1 398
-4 2 -5 9 -2 14 4 5 1 9 -5 9 -6 0 -9 4 -5 10 3 5 -6 36 -20 69 -14 33 -25 69
-25 79 0 10 -3 22 -7 26 -4 3 -8 12 -9 19 -1 7 -12 39 -24 72 -12 33 -28 83
-37 110 -63 195 -129 338 -82 178 11 -38 22 -81 25 -98 3 -16 6 -39 8 -50 2
-11 15 -67 29 -125 14 -58 28 -121 32 -140 3 -19 9 -51 13 -70 8 -42 8 -102
-1 -150 -3 -19 -6 -41 -6 -49 -1 -11 -4 -11 -16 -1 -9 7 -13 15 -11 17 3 3 -4
21 -14 41 -24 47 -43 93 -46 112 -1 8 -5 26 -9 40 -9 35 -16 81 -16 105 0 11
-13 92 -29 180 -27 147 -28 153 -23 75 3 -47 7 -101 9 -120 2 -19 6 -59 9 -87
4 -29 3 -53 0 -53 -5 0 -23 40 -29 65 -4 14 -21 54 -46 107 -12 26 -23 53 -24
60 -2 7 -18 45 -36 83 -17 39 -39 86 -46 105 -8 19 -23 52 -34 72 -11 20 -20
42 -20 48 0 25 -33 81 -42 72 -5 -5 -1 -23 11 -43 16 -28 33 -78 47 -134 1 -5
16 -49 33 -96 17 -48 33 -97 35 -110 3 -13 5 -25 7 -26 1 -2 3 -7 4 -13 1 -5
4 -12 5 -15 1 -3 3 -8 5 -12 1 -5 5 -15 8 -23 18 -45 45 -130 40 -130 -3 0 0
-7 7 -15 7 -8 9 -15 5 -15 -4 0 -2 -6 4 -13 6 -8 9 -16 6 -19 -3 -3 4 -27 16
-54 12 -27 25 -65 30 -84 5 -19 11 -42 14 -50 2 -8 18 -58 35 -110 48 -147 50
-198 23 -500 -4 -52 -8 -199 -8 -327 0 -127 -3 -229 -7 -226 -5 2 -8 9 -8 15
0 6 -14 41 -31 77 -17 36 -33 74 -35 84 -2 11 -7 24 -12 31 -5 6 -26 54 -47
106 -21 52 -46 112 -57 134 -11 21 -21 46 -23 55 -2 9 -26 70 -54 136 -27 66
-52 128 -55 138 -3 9 -13 17 -23 17 -34 0 -45 70 -49 304 -2 121 -6 222 -9
224 -3 3 -5 1 -6 -4 -2 -30 -9 -67 -24 -124 -10 -36 -20 -87 -24 -115 l-6 -50
-71 140 c-47 92 -78 141 -90 144 -15 3 -16 1 -6 -11 12 -15 71 -230 78 -287 3
-18 16 -77 30 -130 20 -78 24 -111 20 -173 -3 -43 -6 -142 -7 -220 -2 -101 -4
-131 -10 -103 -14 73 -50 279 -54 315 -15 119 -25 112 -25 -16 l0 -109 -19 30
c-10 17 -29 64 -42 106 -16 53 -27 75 -36 72 -7 -3 -10 -10 -6 -17 10 -16 13
-38 6 -50 -4 -5 -8 -28 -10 -50 -6 -72 -41 -262 -42 -231 -1 17 -10 91 -21
165 -22 146 -27 185 -35 270 -3 30 -15 104 -26 165 -11 60 -23 130 -25 155 -7
69 -9 85 -16 95 -3 6 -4 20 -3 33 1 12 -2 22 -7 22 -5 0 -6 4 -3 10 6 10 -1
57 -30 210 -22 113 -27 142 -30 175 -5 43 -15 105 -25 145 -4 19 -11 56 -15
82 -3 26 -10 50 -15 53 -5 3 -7 -9 -4 -27 3 -18 7 -71 9 -118 2 -47 4 -85 5
-85 1 0 3 -29 5 -65 4 -90 12 -212 24 -365 6 -71 13 -188 16 -259 3 -72 8
-139 10 -150 3 -12 8 -84 11 -161 3 -77 7 -178 9 -225 2 -47 6 -152 8 -235 2
-82 5 -154 6 -160 2 -5 3 -37 2 -70 l-1 -60 -21 39 c-11 22 -22 47 -24 57 -2
10 -18 43 -35 74 -26 46 -32 70 -35 133 -6 102 -12 231 -19 372 -3 63 -13 225
-21 360 -12 193 -24 539 -25 748 0 12 -4 22 -8 22 -9 0 -32 -217 -39 -360 -2
-41 -5 -100 -8 -130 -2 -30 -6 -93 -9 -140 -3 -47 -10 -150 -15 -230 -6 -80
-14 -199 -17 -265 -7 -114 -8 -118 -19 -80 -7 22 -16 92 -20 155 -10 154 -11
165 -17 176 -3 5 -4 20 -3 34 1 14 0 29 -3 34 -3 6 -7 35 -9 65 -2 31 -13 99
-24 151 -12 52 -22 111 -24 130 -2 19 -8 50 -14 68 -5 18 -9 33 -9 35 2 11
-27 85 -33 82 -6 -4 -5 -40 1 -40 1 0 3 -25 5 -55 3 -62 11 -136 25 -225 5
-33 14 -105 20 -160 6 -55 13 -120 16 -145 2 -25 7 -74 9 -110 l5 -65 -29 65
c-38 88 -106 228 -128 265 -10 16 -38 63 -62 105 -48 80 -139 200 -153 200 -4
0 12 -40 37 -90 25 -49 45 -91 44 -92 -1 -2 8 -23 19 -48 38 -83 104 -239 104
-247 0 -4 5 -17 11 -28 6 -11 11 -22 12 -25 0 -3 14 -39 32 -80 17 -41 45
-111 61 -155 17 -44 33 -89 38 -100 4 -11 8 -22 8 -25 1 -3 15 -39 31 -80 30
-76 33 -90 39 -170 2 -25 5 -46 6 -47 2 -3 2 -107 0 -125 -1 -12 -29 79 -28
92 0 3 -1 7 -2 10 -3 8 -9 33 -15 65 -8 44 -61 217 -96 315 -17 47 -31 91 -32
98 0 6 -3 12 -7 12 -3 0 -6 8 -7 18 -1 19 -30 89 -105 257 -39 87 -63 136
-119 240 -15 28 -35 65 -44 83 -10 17 -21 32 -26 32 -12 0 -12 -1 7 -46 9 -20
19 -58 24 -83 12 -67 19 -98 40 -176 10 -38 21 -81 24 -95 3 -14 7 -36 10 -50
3 -13 8 -42 11 -65 3 -22 12 -67 20 -100 20 -84 49 -257 60 -355 3 -25 7 -61
10 -80 5 -31 1 -27 -36 35 -23 39 -59 105 -80 147 -21 42 -44 80 -50 83 -8 5
-9 46 -5 139 5 89 4 126 -3 115 -6 -9 -13 -41 -16 -72 -5 -51 -23 -118 -24
-90 -1 11 -37 72 -59 98 -4 6 -9 13 -10 18 -2 10 -46 91 -82 152 -53 89 -68
128 -93 235 -13 58 -25 112 -26 120 -4 40 -9 75 -11 75 -1 0 -3 9 -4 20 -2 11
-11 59 -21 106 -17 85 -17 87 5 170 12 46 23 95 25 109 4 26 8 45 20 95 13 52
-8 17 -33 -53 -13 -37 -25 -77 -28 -89 -2 -12 -8 -32 -13 -44 -7 -21 -9 -19
-16 16 -4 22 -9 58 -11 80 -3 22 -13 85 -24 140 -17 89 -22 126 -36 255 -2 19
-6 49 -9 65 -3 17 -8 55 -10 85 -3 30 -10 59 -15 64 -12 12 -2 -199 20 -409 6
-55 13 -122 15 -150 9 -85 16 -158 22 -200 3 -22 6 -53 6 -70 1 -33 -31 -150
-39 -142 -11 11 -73 119 -79 137 -4 11 -10 20 -14 20 -9 0 -35 51 -33 63 1 4
-2 7 -7 7 -5 0 -14 13 -21 29 -6 16 -19 37 -28 48 -9 10 -28 38 -41 63 -40 75
-62 110 -71 110 -4 0 17 -48 46 -106 30 -59 54 -112 54 -119 0 -7 3 -15 8 -17
10 -4 74 -141 70 -149 -2 -4 4 -15 13 -25 22 -26 70 -130 71 -151 0 -24 -9
-63 -21 -88 -8 -18 -42 -118 -47 -137 -1 -5 -2 -9 -4 -10 -1 -2 -4 -16 -6 -33
-3 -16 -10 -32 -16 -36 -5 -3 -10 -10 -9 -15 1 -22 -43 -154 -49 -147 -4 4
-12 22 -18 38 -23 64 -65 171 -70 180 -4 6 -7 15 -8 20 -1 6 -22 53 -47 105
-24 52 -51 110 -58 128 -8 17 -17 32 -21 32 -12 0 -9 -35 4 -48 7 -7 9 -12 6
-12 -4 0 -2 -15 3 -32 6 -18 12 -44 15 -58 3 -14 12 -45 20 -68 8 -24 16 -58
19 -75 2 -18 4 -32 5 -32 1 0 3 -11 6 -25 2 -14 18 -88 35 -165 17 -77 32
-149 33 -160 1 -11 4 -24 7 -30 7 -13 4 -41 -10 -92 -13 -48 -26 -56 -29 -19
-1 13 -10 48 -21 78 -11 29 -21 64 -23 78 -2 14 -6 27 -10 30 -3 3 -8 19 -12
35 -13 72 -40 165 -48 165 -9 0 -6 -25 7 -80 3 -14 8 -38 11 -55 3 -16 12 -64
21 -105 9 -41 17 -82 18 -90 1 -8 5 -22 8 -30 7 -16 17 -93 22 -154 1 -21 -1
-51 -6 -65 -4 -14 -21 -68 -37 -118 l-28 -93 -13 93 c-14 96 -21 173 -24 245
-1 23 -4 42 -7 42 -3 0 -6 28 -6 63 -1 34 -7 123 -13 196 -6 74 -11 236 -11
360 0 134 -4 221 -9 216 -10 -11 -58 -153 -66 -195 -3 -14 -10 -52 -16 -85 -5
-33 -17 -86 -25 -117 -8 -32 -16 -79 -19 -105 -2 -26 -7 -70 -10 -98 -14 -110
-18 -168 -23 -275 -1 -21 -6 -30 -11 -25 -24 25 -80 138 -86 172 -3 21 -13 79
-23 128 l-17 90 -3 -72 c-2 -40 -6 -73 -10 -73 -4 0 -21 23 -37 50 -16 28 -32
50 -36 50 -9 0 -5 28 27 157 14 56 27 115 29 130 7 44 56 223 72 262 13 32
-21 2 -45 -39 -34 -61 -145 -283 -148 -295 -1 -5 -9 -22 -17 -38 l-14 -27 -24
35 c-13 19 -27 35 -31 35 -5 0 -8 6 -8 14 0 8 -4 16 -8 18 -4 2 -23 24 -41 49
-39 56 -39 74 14 294 26 109 35 149 40 180 2 11 4 20 5 20 1 0 3 16 6 35 2 19
13 67 24 105 29 107 39 155 30 155 -5 0 -14 -17 -20 -37 -6 -21 -14 -45 -17
-53 -3 -8 -8 -26 -10 -40 -2 -13 -8 -29 -12 -35 -9 -10 -41 -104 -41 -118 0
-4 -7 -24 -15 -45 -23 -54 -67 -185 -68 -199 0 -7 -4 -13 -9 -13 -5 0 -6 -5
-3 -10 4 -6 -1 -24 -9 -42 -9 -17 -16 -37 -16 -44 0 -8 -11 -2 -25 12 -14 14
-25 29 -25 34 0 6 -4 10 -8 10 -5 0 -15 11 -22 25 -7 14 -19 25 -27 25 -9 0
-5 -13 13 -42 37 -59 74 -144 66 -153 -4 -4 -8 -11 -8 -16 -1 -5 -2 -10 -4
-11 -1 -2 -3 -11 -5 -20 -6 -32 -38 -123 -47 -134 -5 -7 -8 -16 -7 -20 1 -5 0
-11 -1 -14 -1 -3 -3 -12 -5 -20 -11 -57 -28 -101 -34 -94 -7 8 -60 137 -66
159 -1 6 -5 17 -8 25 -7 16 -38 104 -57 160 -52 150 -78 215 -85 208 -5 -5 23
-94 66 -211 16 -43 31 -88 33 -101 2 -12 16 -56 31 -97 14 -41 31 -90 36 -109
13 -47 15 -52 24 -73 6 -15 -4 -96 -14 -109 -2 -2 -4 -13 -7 -25 -4 -22 -54
-175 -60 -182 -4 -4 -34 68 -32 77 1 8 -10 40 -23 65 -5 9 -25 61 -45 115 -20
53 -40 102 -44 107 -3 6 -15 33 -24 60 -10 28 -24 64 -31 80 -7 17 -23 55 -35
85 -12 30 -40 96 -61 146 -22 50 -39 95 -39 100 0 5 -12 32 -25 59 -14 28 -25
58 -25 68 0 9 -4 17 -8 17 -4 0 -14 17 -21 38 -8 20 -22 55 -31 77 -18 40 -30
73 -29 78 1 1 -15 34 -34 72 -19 39 -44 93 -55 120 -40 101 -90 216 -96 222
-15 15 -4 -34 25 -107 16 -44 31 -88 32 -100 1 -11 6 -20 11 -20 5 0 7 -3 3
-6 -3 -3 10 -49 30 -102 19 -54 37 -108 39 -120 3 -13 11 -43 20 -65 26 -76
51 -151 59 -182 5 -16 9 -34 11 -40 1 -5 14 -42 27 -82 14 -39 23 -74 19 -77
-3 -3 0 -6 6 -6 6 0 10 -8 10 -17 0 -10 12 -52 26 -93 15 -41 32 -93 37 -115
5 -22 21 -74 35 -117 14 -42 27 -98 29 -125 3 -26 7 -73 10 -103 7 -66 13
-129 20 -235 3 -44 12 -127 19 -185 13 -105 12 -127 -3 -101 -11 17 -53 241
-57 301 -1 25 -3 45 -4 45 -1 0 -3 16 -5 35 -1 19 -12 91 -23 160 -11 69 -23
146 -27 173 -3 26 -11 47 -17 47 -5 0 -7 -8 -4 -17 4 -9 9 -75 12 -147 3 -72
7 -164 10 -205 4 -65 2 -72 -11 -61 -21 17 -20 -5 1 -45 13 -24 17 -68 19
-205 2 -96 4 -175 5 -175 1 0 3 -67 4 -150 2 -135 -1 -149 -18 -75 -1 8 -6 22
-9 30 -3 8 -5 22 -5 30 0 8 -2 33 -6 55 -4 22 -9 58 -12 80 -2 22 -13 78 -24
125 -11 47 -22 96 -24 110 -13 69 -56 229 -67 251 -5 9 -11 31 -14 50 -6 36
-76 240 -102 299 -8 19 -26 64 -39 99 -13 35 -38 90 -54 122 -16 33 -28 59
-25 59 6 0 -105 211 -127 239 -10 13 -18 32 -18 42 0 11 -7 19 -15 19 -18 0
-18 1 0 -45 9 -20 20 -58 26 -83 5 -26 12 -58 15 -72 2 -14 18 -77 34 -140 15
-63 31 -131 34 -150 12 -79 17 -107 26 -145 13 -56 40 -202 46 -250 2 -22 7
-53 9 -70 3 -16 7 -52 10 -80 3 -27 10 -74 15 -104 6 -30 10 -61 10 -70 0 -15
-59 92 -65 119 -2 8 -20 51 -40 95 -20 44 -36 80 -35 80 2 0 -12 31 -29 69
-17 37 -29 72 -26 76 3 5 2 10 -3 12 -8 3 -75 155 -90 203 -5 17 -13 28 -18
26 -5 -1 -7 -8 -5 -15 2 -6 10 -36 18 -66 8 -30 17 -62 20 -70 3 -8 7 -20 8
-26 2 -6 6 -22 9 -35 4 -13 -5 -3 -19 23 -13 26 -36 63 -49 83 -19 27 -23 44
-19 70 4 23 2 35 -6 35 -6 0 -11 -8 -11 -17 0 -19 -21 12 -71 103 -25 46 -26
56 -17 95 15 69 18 82 24 119 3 19 16 78 29 131 14 52 26 110 27 128 1 18 6
35 10 37 4 3 5 11 1 19 -3 8 0 15 7 15 6 0 9 4 5 9 -3 5 6 58 21 118 26 110
33 142 39 178 8 48 17 79 26 97 13 23 2 39 -11 18 -9 -14 -37 -103 -40 -125
-1 -5 -6 -15 -12 -22 -5 -7 -11 -22 -14 -35 -2 -13 -29 -95 -59 -183 -31 -88
-65 -187 -75 -220 -10 -33 -29 -91 -42 -130 l-25 -70 -23 45 c-12 25 -35 63
-50 85 -15 22 -33 55 -41 73 -8 17 -17 32 -21 32 -5 0 -8 7 -8 15 0 8 -4 15
-9 15 -10 0 -21 27 -20 44 0 5 -3 12 -8 15 -9 6 -39 51 -58 86 -44 83 -230
385 -237 385 -5 0 14 -44 41 -97 47 -93 164 -335 209 -433 29 -64 160 -340
175 -370 10 -20 9 -33 -5 -77 -10 -29 -20 -63 -22 -75 -3 -13 -5 -24 -7 -25
-1 -2 -2 -6 -3 -10 -1 -5 -14 -44 -29 -89 -15 -44 -30 -91 -32 -104 -2 -13 -9
-28 -15 -34 -7 -7 -11 -7 -10 -1 2 6 1 13 0 18 -4 11 -6 19 -14 52 -4 17 -18
62 -31 100 -13 39 -26 81 -29 95 -2 14 -20 70 -38 125 -19 55 -35 103 -36 108
-1 4 -2 8 -3 10 0 1 -2 9 -4 17 -1 8 -17 56 -35 105 -17 50 -33 97 -35 106 -2
9 -15 49 -30 90 -15 41 -31 90 -36 109 -5 19 -20 67 -35 105 -14 39 -39 113
-56 165 -31 98 -57 145 -44 80 4 -19 9 -44 10 -55 2 -11 8 -38 14 -60 14 -49
50 -201 56 -235 3 -14 5 -25 6 -25 1 0 3 -16 5 -35 2 -19 14 -70 26 -113 l22
-77 -23 -71 c-12 -40 -24 -86 -26 -103 -2 -17 -6 -42 -9 -56 -6 -25 -11 -53
-14 -77 -2 -19 -15 -16 -26 6 -6 10 -40 64 -77 120 -38 56 -68 106 -68 111 0
6 -4 10 -8 10 -4 0 -25 35 -46 78 -35 71 -41 79 -67 79 -27 0 -28 -2 -16 -21
26 -41 31 -51 33 -64 2 -8 9 -21 16 -30 12 -15 37 -102 53 -184 11 -61 17 -86
35 -158 10 -41 21 -91 24 -110 3 -19 8 -46 11 -60 3 -14 7 -40 10 -59 2 -19
16 -98 30 -175 31 -164 35 -200 39 -361 2 -66 5 -124 6 -130 1 -5 2 -17 1 -25
-2 -13 -39 67 -45 95 -1 6 -8 28 -15 49 -13 38 -9 203 6 264 4 17 2 21 -10 16
-9 -3 -15 -13 -15 -22 0 -26 -12 -146 -16 -149 -2 -2 -21 38 -42 89 -26 62
-39 109 -40 140 0 45 -14 83 -14 42 -1 -14 -6 -10 -19 15 -24 46 -35 18 -11
-31 15 -31 16 -43 5 -99 l-12 -64 -8 45 c-4 25 -9 56 -11 70 -7 57 -13 100
-29 195 -31 183 -34 197 -41 204 -5 5 2 -294 12 -469 2 -36 5 -99 8 -140 2
-41 6 -120 9 -175 4 -76 3 -89 -4 -55 -5 25 -10 71 -12 102 -1 32 -5 58 -9 58
-4 0 -7 19 -6 43 0 23 -1 44 -2 47 -2 3 -4 16 -5 30 -9 98 -16 154 -20 158
-13 13 -17 -7 -30 -133 -4 -33 -9 -67 -12 -75 -3 -8 -5 -44 -4 -80 l1 -65 -35
74 c-19 40 -35 77 -35 82 0 4 -18 50 -39 101 -84 200 -90 218 -85 291 12 191
12 195 0 191 -7 -3 -12 -21 -11 -42 1 -36 -22 -172 -24 -142 -1 8 -9 31 -20
50 -20 38 -46 111 -43 122 1 3 -5 9 -13 12 -16 6 -20 -14 -6 -29 7 -8 36 -97
45 -140 2 -5 8 -30 15 -54 12 -40 10 -82 -6 -176 -2 -16 -6 -43 -8 -60 -2 -16
-7 -46 -10 -65 -3 -19 -7 -48 -9 -65 -2 -16 -7 -57 -12 -90 l-7 -60 -17 55
c-10 30 -26 78 -38 105 -11 28 -21 55 -22 60 -9 33 -61 135 -69 135 -5 0 -4
-21 4 -50 7 -28 12 -61 10 -75 -1 -14 1 -25 4 -25 4 0 7 -17 8 -37 1 -43 7
-87 24 -186 6 -38 9 -70 6 -73 -5 -5 -23 82 -33 161 -3 28 -10 57 -14 65 -4 8
-8 18 -8 23 0 23 -16 112 -33 177 -19 70 -32 139 -32 168 0 6 -3 12 -7 12 -4
0 -7 8 -7 18 2 32 -46 222 -56 222 -5 0 -6 -16 -2 -37 8 -42 16 -116 20 -183
1 -25 4 -45 5 -45 1 0 3 -29 5 -65 1 -36 5 -92 8 -125 l6 -60 -25 55 c-26 57
-27 60 -21 123 2 21 0 40 -5 43 -4 3 -8 -9 -8 -27 0 -31 -1 -32 -14 -13 -18
25 -31 12 -16 -16 13 -23 14 -72 5 -140 -4 -25 -8 -61 -9 -80 -2 -19 -4 -39
-5 -45 -2 -11 -20 29 -26 56 -8 37 -40 119 -47 119 -13 0 -10 -12 30 -131 l37
-114 -11 -93 c-11 -87 -24 -133 -24 -83 0 12 -11 67 -25 122 -14 55 -23 104
-20 109 4 6 2 10 -2 10 -5 0 -9 15 -10 33 -1 17 -4 50 -7 72 -30 240 -47 466
-52 695 -4 200 1 242 32 325 3 8 1 15 -5 15 -6 0 -11 -8 -11 -17 -1 -16 -2
-16 -15 1 -8 11 -16 18 -18 15 -4 -5 -47 -158 -51 -179 -1 -8 -14 -40 -28 -70
-14 -30 -36 -84 -49 -119 -13 -35 -25 -58 -27 -50 -2 8 -37 82 -78 164 l-73
150 -10 228 c-6 125 -11 268 -11 317 0 53 -4 90 -10 90 -5 0 -10 -8 -10 -17
-1 -42 -11 -176 -20 -273 -22 -242 -31 -360 -35 -475 -8 -224 -16 -371 -21
-385 -4 -8 -6 -51 -5 -95 1 -73 0 -78 -14 -60 -8 11 -18 25 -23 30 -9 11 -22
42 -21 51 0 4 -3 10 -8 13 -5 3 -20 27 -33 54 -14 26 -28 47 -32 47 -5 0 -8 5
-8 10 0 6 -20 47 -45 90 -53 93 -53 78 -4 295 12 50 22 99 25 110 6 33 12 60
14 60 1 0 3 14 5 30 2 17 15 77 29 135 14 58 27 116 30 130 25 124 36 171 49
208 9 27 11 42 4 39 -9 -3 -81 -188 -92 -239 -4 -16 -50 -149 -62 -178 -3 -8
-5 -18 -5 -22 1 -4 -8 -31 -19 -60 -18 -44 -47 -131 -55 -160 -1 -5 -3 -10 -4
-13 -1 -3 -3 -8 -4 -12 -1 -5 -8 -30 -15 -57 l-14 -48 -19 23 c-17 22 -66 107
-106 184 -8 17 -19 32 -22 35 -4 3 -24 37 -45 75 -20 39 -43 77 -49 85 -7 8
-28 42 -46 75 -18 33 -36 62 -41 65 -4 3 -13 17 -18 30 -6 14 -31 58 -56 98
-25 41 -45 77 -45 81 0 4 -9 16 -20 26 -11 10 -20 13 -20 7 0 -6 5 -14 10 -17
6 -4 8 -10 5 -15 -3 -5 2 -15 10 -24 14 -14 55 -99 54 -113 0 -3 3 -9 8 -12 7
-5 75 -137 78 -151 0 -3 31 -68 69 -145 37 -77 69 -144 70 -150 6 -21 39 -90
45 -95 4 -3 13 -21 21 -40 7 -19 26 -62 42 -95 l29 -60 -21 -67 c-12 -38 -25
-68 -29 -68 -6 0 -31 55 -37 83 -1 4 -3 9 -4 12 -1 3 -3 8 -4 13 -12 51 -38
112 -47 112 -5 0 -4 -12 2 -27 6 -16 10 -30 10 -33 -1 -10 20 -85 34 -125 8
-22 17 -51 19 -65 2 -14 5 -27 6 -30 3 -6 1 -12 -14 -77 -18 -74 -26 -63 -24
32 1 55 -3 101 -8 103 -5 1 -10 -7 -10 -18 -1 -11 -3 -21 -4 -22 -1 -2 -4 -14
-5 -28 -2 -14 -6 -41 -9 -60 -3 -19 -8 -53 -11 -75 -4 -22 -15 -85 -26 -141
-11 -55 -21 -120 -24 -145 -10 -96 -31 -196 -41 -187 -2 3 -6 26 -9 53 -2 26
-9 73 -15 104 -5 31 -12 88 -15 126 -3 39 -8 97 -11 130 -16 173 -22 315 -23
568 -1 136 -6 227 -11 227 -6 0 -10 -9 -10 -20 0 -11 -4 -20 -9 -20 -6 0 -10
-8 -10 -17 0 -10 -11 -56 -25 -103 -26 -88 -37 -137 -41 -180 -1 -14 -3 -25
-4 -25 -2 0 -5 -18 -7 -40 -3 -22 -9 -56 -14 -75 -45 -176 -56 -723 -21 -1035
20 -174 10 -187 -28 -35 -22 92 -29 126 -38 180 -3 19 -16 75 -28 125 -13 49
-21 93 -19 97 3 4 1 8 -4 8 -16 0 -5 300 18 500 13 109 13 127 0 114 -5 -5
-17 -95 -25 -199 -9 -105 -20 -206 -24 -225 -6 -32 -8 -27 -25 55 -10 50 -20
99 -21 110 -2 11 -4 20 -5 20 -1 0 -4 14 -6 30 -2 17 -14 71 -26 120 -17 71
-23 85 -28 65 -4 -14 -4 -29 0 -35 6 -10 8 -24 15 -105 2 -19 4 -35 5 -35 1 0
3 -20 5 -45 6 -75 25 -251 36 -317 15 -99 20 -211 9 -218 -10 -6 -14 7 -11 33
1 6 -2 12 -8 12 -5 0 -7 8 -4 19 2 10 -7 78 -22 151 -15 72 -24 138 -21 145 3
8 1 17 -5 21 -6 3 -9 16 -8 27 0 12 0 24 -1 27 -1 3 -4 14 -5 25 -1 11 -5 38
-9 60 -4 22 -11 68 -16 102 -7 43 -7 129 0 265 6 112 13 241 16 288 5 102 13
225 18 300 2 30 7 110 10 178 6 125 22 288 32 329 4 16 2 23 -8 23 -15 0 -18
-13 -18 -62 0 -15 -4 -29 -9 -33 -6 -3 -8 -11 -5 -19 3 -7 -4 -55 -15 -107
-19 -86 -23 -112 -36 -210 -3 -19 -6 -43 -9 -54 -2 -11 -9 -54 -16 -95 -6 -41
-16 -95 -21 -120 -5 -25 -11 -61 -14 -80 -2 -19 -7 -48 -11 -65 -3 -16 -7 -50
-9 -75 -1 -25 -4 -47 -5 -50 -1 -3 -2 -8 -1 -12 0 -3 -6 -39 -14 -80 -13 -69
-32 -196 -41 -283 -6 -52 -12 -89 -14 -95 -2 -7 -6 -45 -8 -98 -1 -25 -6 -41
-12 -37 -5 3 -31 45 -57 93 -25 48 -57 104 -70 125 -22 35 -37 119 -25 132 3
3 6 37 8 77 2 40 6 93 9 117 7 46 9 71 20 206 4 57 3 75 -5 63 -5 -9 -12 -47
-14 -85 -3 -37 -12 -113 -20 -168 -8 -55 -18 -134 -22 -175 l-7 -74 -21 44
c-12 25 -23 47 -26 50 -5 5 -14 21 -73 125 -108 190 -100 168 -83 225 8 27 13
50 11 50 -2 0 3 16 11 35 24 58 -7 43 -37 -18 -14 -28 -30 -52 -35 -51 -5 0
-16 14 -24 30 -8 16 -18 31 -21 34 -4 3 -17 25 -29 50 -12 25 -26 47 -30 50
-3 3 -26 40 -49 82 -23 43 -48 84 -55 90 -7 7 -13 15 -13 18 -1 14 -66 120
-74 120 -5 0 -8 3 -8 8 3 18 -3 31 -26 58 -14 16 -24 33 -22 39 4 11 -33 55
-46 55 -5 0 0 -15 11 -32 19 -32 86 -167 156 -313 19 -38 62 -128 96 -198 65
-137 82 -176 85 -192 1 -5 -15 -41 -34 -80 -19 -38 -36 -76 -37 -84 -2 -7 -7
-18 -13 -24 -13 -13 -25 0 -85 88 -27 39 -56 77 -65 85 -9 8 -18 19 -18 23 -1
5 -17 27 -36 50 -19 23 -51 62 -71 85 -20 24 -36 48 -36 53 0 5 -7 9 -16 9
-15 0 -15 -2 -1 -22 9 -13 31 -52 49 -88 17 -36 44 -85 58 -110 15 -25 27 -47
27 -50 0 -3 30 -67 66 -142 l66 -138 -15 -37 c-8 -21 -21 -51 -28 -67 l-14
-29 -11 53 c-6 28 -9 56 -5 61 3 5 0 9 -5 9 -6 0 -11 9 -11 20 0 11 -5 20 -11
20 -8 0 -9 -11 -5 -32 14 -69 26 -185 22 -213 -3 -17 -15 -59 -27 -94 l-22
-64 -12 39 c-7 21 -24 75 -38 119 -14 44 -33 98 -42 119 -9 22 -19 49 -21 60
-8 43 -166 384 -245 529 -17 31 -36 57 -41 57 -6 0 -7 -8 -3 -17 4 -10 8 -22
9 -28 2 -5 6 -17 9 -25 3 -8 8 -28 11 -45 3 -16 17 -75 31 -130 14 -55 27
-107 29 -115 2 -8 6 -22 9 -30 3 -8 5 -22 6 -30 0 -23 9 -75 20 -117 11 -42
49 -245 57 -308 3 -22 14 -98 25 -170 11 -71 22 -146 25 -165 l5 -35 -29 45
c-24 38 -85 147 -139 250 -7 14 -13 38 -13 54 0 21 -4 27 -15 23 -10 -4 -22 9
-40 45 -34 68 -45 176 -53 523 l-7 280 -23 -83 c-13 -45 -25 -99 -27 -120 -3
-20 -7 -50 -10 -67 -3 -16 -7 -46 -9 -65 -10 -73 -25 -163 -30 -167 -3 -4 -71
106 -134 219 -12 20 -32 55 -46 77 -15 22 -26 43 -26 47 0 3 -13 26 -30 50
-32 48 -44 90 -29 100 5 3 7 9 4 14 -3 4 6 52 20 106 25 99 34 137 40 184 2
14 15 69 29 124 31 116 30 107 12 100 -8 -3 -15 -13 -15 -22 0 -25 -4 -39 -35
-120 -15 -39 -29 -78 -30 -85 -2 -6 -5 -19 -9 -27 -3 -8 -20 -59 -38 -112 -18
-54 -37 -98 -42 -98 -4 0 -13 14 -18 30 -6 17 -14 30 -18 30 -8 0 -34 47 -37
65 0 6 -4 21 -7 35 -9 33 -19 100 -18 125 0 11 -11 69 -24 130 -13 61 -26 135
-29 164 -2 30 -10 59 -16 65 -10 8 -11 -2 -6 -44 4 -30 9 -84 11 -120 2 -36 7
-101 10 -145 4 -69 3 -78 -9 -65 -14 15 -41 60 -77 128 -21 40 -39 62 -50 62
-7 0 18 -57 31 -70 6 -6 42 -82 43 -90 0 -3 15 -32 33 -65 38 -69 42 -91 50
-240 3 -60 9 -166 13 -234 7 -97 6 -133 -5 -163 -7 -21 -13 -39 -13 -41 1 -5
-9 -36 -35 -113 -15 -45 -29 -90 -31 -100 -11 -50 -22 -78 -32 -81 -9 -3 -68
118 -68 141 0 5 -6 11 -12 14 -17 5 -16 2 6 -56 11 -27 21 -62 23 -78 3 -16
10 -48 18 -71 11 -36 11 -50 -1 -85 -7 -24 -14 -47 -15 -53 -1 -5 -3 -12 -4
-15 -1 -3 -3 -12 -5 -20 -1 -8 -15 -55 -31 -105 l-28 -90 -13 100 c-7 55 -11
117 -10 138 2 20 1 37 -3 37 -4 0 -6 19 -5 43 1 23 -1 46 -3 52 -3 5 -7 39 -9
75 -2 36 -4 91 -6 123 -2 31 -4 163 -5 293 -2 231 -2 235 -22 232 -16 -2 -34
-31 -72 -113 -70 -152 -123 -283 -161 -394 -18 -52 -33 -85 -35 -75 -14 96
-28 74 -26 -41 0 -47 -3 -88 -8 -91 -5 -3 -8 -2 -7 3 1 4 0 15 -3 23 -10 28
-72 225 -75 235 -1 6 -4 19 -6 31 -5 20 -59 185 -98 299 -11 33 -34 103 -50
155 -16 52 -36 109 -44 126 -8 17 -17 42 -19 55 -3 13 -5 24 -6 24 -1 0 -3 7
-6 15 -18 70 -94 275 -101 277 -6 2 5 -56 24 -129 19 -73 36 -149 38 -168 2
-19 4 -35 5 -35 1 0 3 -10 6 -23 2 -12 13 -57 24 -100 11 -42 21 -91 23 -107
2 -17 7 -36 11 -43 4 -7 5 -16 1 -21 -3 -5 -1 -12 5 -16 6 -4 8 -10 5 -15 -3
-4 8 -61 25 -126 16 -66 31 -137 34 -159 2 -22 5 -40 6 -40 1 0 3 -11 6 -25
10 -54 35 -177 44 -210 10 -39 17 -79 25 -136 6 -46 8 -57 29 -148 16 -67 16
-73 -5 -155 -12 -47 -22 -96 -21 -109 0 -12 -4 -25 -9 -27 -9 -6 -16 15 -24
65 -10 64 -13 77 -33 156 -11 43 -24 99 -28 124 -9 50 -11 59 -13 63 -1 1 -4
18 -7 37 -2 19 -16 83 -30 142 -14 59 -26 120 -28 135 -1 15 -5 34 -9 41 -5 6
-6 12 -3 12 2 0 -2 27 -10 61 -14 61 -40 182 -48 229 -3 14 -5 25 -6 25 -1 0
-4 11 -5 25 -11 82 -17 113 -35 185 -19 80 -31 155 -31 188 0 9 -5 17 -10 17
-6 0 -8 4 -5 9 4 5 -7 74 -23 154 -34 168 -45 232 -50 295 -1 7 -6 10 -12 6
-7 -4 -9 -22 -5 -48 3 -22 13 -124 22 -226 17 -199 21 -240 28 -310 6 -53 18
-199 18 -220 0 -8 10 -98 23 -200 13 -102 27 -216 30 -255 9 -107 20 -196 31
-267 3 -21 3 -38 0 -38 -8 0 -41 82 -38 93 1 4 -3 7 -8 7 -6 0 -10 7 -10 15 0
9 -14 46 -30 83 -17 36 -32 74 -33 84 -2 10 -6 20 -10 24 -3 4 -2 14 3 24 9
18 8 45 -3 56 -4 4 -7 -1 -7 -12 -1 -15 -4 -14 -16 9 -8 15 -17 27 -19 27 -7
0 2 -52 15 -87 8 -22 8 -47 2 -84 -6 -29 -8 -58 -5 -65 2 -7 0 -15 -6 -18 -6
-4 -8 -13 -4 -21 3 -8 -1 -15 -8 -15 -7 0 -9 3 -6 6 3 4 2 14 -2 23 -5 9 -11
32 -15 51 -12 80 -28 140 -36 135 -4 -2 -6 -19 -4 -37 6 -53 12 -118 18 -198
3 -41 8 -97 10 -125 3 -27 3 -41 0 -30 -3 11 -14 47 -25 81 -11 33 -22 70 -24
82 -3 12 -7 30 -9 40 -2 9 -17 53 -33 97 -32 87 -35 115 -37 452 0 95 -4 169
-7 165 -8 -8 -38 -104 -45 -142 -2 -14 -11 -49 -20 -77 l-16 -53 -27 58 c-82
169 -104 212 -112 212 -12 0 -12 -2 11 -54 10 -25 17 -46 13 -46 -3 0 0 -6 6
-13 6 -8 8 -17 5 -20 -3 -3 6 -48 20 -99 14 -51 27 -106 28 -123 2 -16 6 -32
9 -35 10 -7 19 -86 12 -94 -4 -3 -8 -19 -9 -34 -7 -93 -28 -281 -31 -278 -2 2
-8 66 -13 142 -15 214 -32 354 -43 354 -6 0 -7 -17 -4 -42 7 -51 -9 -458 -23
-608 -11 -105 -15 -148 -25 -270 -6 -76 -10 -90 -25 -90 -6 0 -9 4 -5 9 6 11
-6 66 -37 176 -12 39 -22 81 -23 95 -4 44 -104 357 -131 408 -7 14 -11 29 -8
34 3 4 0 8 -5 8 -6 0 -10 3 -10 8 1 4 0 10 -1 15 -1 4 -3 10 -5 15 -1 4 -4 14
-8 22 -17 44 -25 198 -17 307 5 65 12 172 15 238 4 66 9 152 11 190 6 73 9
129 18 280 3 50 8 119 12 155 3 36 4 63 1 60 -7 -7 -51 -224 -62 -310 -6 -46
-9 -63 -18 -115 -3 -16 -13 -73 -22 -125 -9 -51 -17 -95 -19 -97 -2 -3 -27
191 -31 243 -1 11 -4 24 -7 30 -3 5 -6 24 -6 43 0 18 -3 36 -6 39 -18 17 -17
-24 4 -164 26 -176 31 -327 15 -424 l-11 -65 -24 44 c-14 24 -31 55 -39 69 -9
17 -15 67 -17 142 -2 63 -6 174 -9 245 -3 72 -5 160 -5 198 1 66 -17 99 -19
35 -1 -18 -3 -55 -5 -83 -3 -27 -7 -79 -10 -115 -3 -36 -9 -114 -15 -175 -5
-60 -18 -227 -28 -369 -16 -241 -18 -257 -31 -225 -8 19 -15 39 -17 44 -1 6
-7 23 -13 38 -7 16 -12 30 -12 33 0 2 -9 23 -20 47 -11 23 -21 53 -23 66 -2
14 -9 27 -15 29 -15 5 -15 5 7 -61 11 -32 17 -57 14 -57 -3 0 0 -6 6 -14 6 -8
11 -18 10 -22 -3 -10 26 -112 47 -167 19 -50 3 -40 -25 15 -12 24 -37 68 -55
98 -18 30 -58 98 -88 150 -30 52 -94 162 -141 244 -47 82 -93 156 -102 166 -8
9 -15 23 -15 30 0 7 -7 21 -16 31 -16 17 -58 188 -49 197 3 3 1 10 -4 16 -5 6
-12 36 -15 66 -5 54 -8 74 -28 178 -11 59 -30 62 -22 4 3 -20 7 -66 9 -102 2
-36 7 -93 10 -127 4 -40 2 -63 -5 -63 -5 0 -10 4 -10 9 0 5 -15 36 -34 69 -19
33 -32 62 -30 65 4 4 18 77 28 149 3 20 1 40 -4 43 -6 3 -11 -6 -12 -22 -1
-28 -4 -44 -8 -53 -4 -8 -11 -53 -11 -73 0 -10 -7 -21 -15 -24 -7 -3 -11 -10
-7 -16 11 -18 4 -73 -23 -194 -14 -62 -23 -117 -20 -122 4 -5 2 -12 -3 -16 -5
-3 -10 -13 -10 -23 1 -23 -8 -66 -36 -196 -14 -60 -22 -112 -20 -117 3 -4 0
-11 -6 -14 -5 -4 -8 -13 -5 -20 2 -7 2 -16 -2 -19 -3 -4 -7 -19 -8 -34 -1 -16
-14 -80 -28 -143 -14 -63 -28 -130 -31 -149 -11 -69 -36 -184 -41 -189 -5 -5
-6 46 -4 130 1 32 -3 60 -9 64 -12 7 -12 4 -16 -65 -2 -25 -4 -45 -5 -45 -2 0
-3 -11 -5 -25 -4 -56 -18 -111 -25 -103 -4 4 -23 37 -42 73 -32 58 -35 72 -34
138 1 39 -1 72 -4 72 -3 0 -5 57 -6 127 0 71 -1 162 -2 203 -1 93 1 120 8 120
4 0 7 7 7 15 0 8 -3 12 -7 10 -10 -6 -20 215 -20 423 0 134 -3 173 -12 170 -8
-3 -13 -26 -14 -64 -1 -32 -2 -61 -3 -64 -1 -3 -4 -77 -6 -165 -9 -334 -16
-434 -31 -464 -8 -17 -17 -40 -19 -52 -2 -12 -12 -33 -21 -47 -9 -14 -20 -37
-23 -50 -7 -25 -7 -25 -30 14 -13 21 -33 55 -43 74 -11 19 -47 78 -79 132 -32
53 -59 100 -59 106 0 5 -9 20 -19 33 -11 15 -24 56 -31 104 -6 44 -14 94 -17
110 -3 17 -6 39 -7 50 -4 36 -17 108 -42 234 -14 68 -23 130 -20 137 3 7 -2
18 -11 26 -14 11 -15 8 -10 -27 8 -51 15 -134 22 -255 4 -52 8 -116 10 -142 2
-27 1 -48 -3 -48 -9 1 -94 140 -163 264 -23 43 -45 47 -24 5 10 -19 24 -42 33
-52 8 -9 12 -20 9 -24 -4 -3 -3 -11 2 -17 14 -18 85 -160 88 -175 1 -8 11 -27
22 -42 12 -16 21 -34 21 -42 0 -7 4 -17 9 -22 16 -16 22 -62 26 -200 3 -71 10
-188 15 -259 14 -178 13 -206 -4 -206 -11 0 -14 -11 -11 -42 2 -24 6 -104 9
-178 4 -74 9 -175 12 -225 5 -88 5 -89 -11 -55 -9 19 -20 37 -24 40 -4 3 -18
25 -29 50 -12 25 -33 65 -48 90 -14 25 -48 81 -73 125 -26 44 -56 110 -66 147
-17 65 -38 88 -27 31 2 -16 3 -26 0 -23 -14 14 -159 231 -180 270 -26 47 -54
120 -50 132 1 4 4 29 8 55 3 26 8 51 10 55 3 5 7 21 10 36 2 15 15 72 28 127
13 55 22 103 20 107 -3 5 -1 8 3 8 5 0 9 8 10 18 3 41 15 99 34 165 11 40 22
83 25 96 3 14 7 28 10 33 3 4 1 8 -5 8 -14 0 -33 -38 -26 -50 3 -6 1 -10 -6
-10 -7 0 -10 -3 -6 -6 6 -6 -5 -41 -43 -135 -11 -25 -21 -56 -24 -70 -2 -13
-23 -76 -46 -139 -22 -63 -41 -116 -40 -117 0 -2 0 -4 -1 -5 0 -2 -2 -11 -4
-22 -7 -35 -22 -38 -35 -7 -16 40 -41 43 -63 8 l-18 -30 -15 22 c-22 31 -36
26 -80 -28 l-39 -48 -10 51 c-14 71 -29 55 -28 -29 1 -69 0 -71 -50 -140 -74
-100 -68 -96 -94 -58 -13 19 -23 36 -23 39 0 3 -20 39 -45 81 -33 57 -43 83
-38 101 3 14 7 39 8 56 2 17 4 31 5 31 1 0 3 16 5 35 3 42 7 65 34 197 12 56
22 114 23 130 1 15 4 33 7 38 3 6 6 17 6 25 0 8 3 20 6 25 3 6 6 26 8 45 1 19
13 78 26 130 13 52 24 104 24 115 0 18 7 60 11 60 1 0 3 11 4 25 4 29 41 187
51 213 5 12 2 17 -9 17 -9 0 -16 -6 -17 -12z m-4603 -600 c-4 -13 -8 -34 -10
-48 -2 -14 -13 -74 -24 -135 -27 -136 -34 -182 -33 -217 1 -15 -2 -29 -7 -32
-4 -2 -7 10 -7 27 1 18 0 36 -3 41 -5 9 -5 195 0 231 2 11 5 22 8 25 3 3 16
27 30 55 36 71 59 98 46 53z m2437 -54 c21 -41 35 -79 32 -84 -3 -6 -3 -10 2
-10 4 0 8 -47 8 -105 0 -58 -3 -105 -6 -105 -4 0 -5 -10 -2 -22 3 -18 2 -19
-5 -8 -8 13 -41 185 -48 250 -1 14 -3 26 -4 28 -2 1 -4 11 -5 22 -1 11 -4 22
-5 25 -1 3 -4 14 -5 25 -1 11 -3 21 -5 23 -1 1 -3 10 -5 20 -7 36 11 14 48
-59z m3937 -4 c7 -22 18 -40 23 -40 6 0 8 -3 4 -6 -3 -3 5 -26 19 -50 21 -38
25 -60 29 -167 2 -68 7 -130 9 -138 3 -8 5 -39 5 -69 0 -30 3 -77 6 -105 3
-27 3 -47 0 -44 -3 4 -8 24 -11 45 -4 35 -19 64 -27 53 -2 -2 0 -56 4 -119 10
-150 10 -762 0 -820 l-7 -45 -7 46 c-12 74 -24 134 -27 134 -1 0 -3 14 -5 30
-2 17 -11 62 -20 100 -10 39 -18 77 -20 85 -1 8 -5 22 -9 30 -3 8 -8 29 -10
45 -3 17 -7 39 -10 50 -2 11 -5 28 -5 38 -1 9 -8 17 -17 17 -10 0 -13 -6 -10
-18 10 -29 24 -159 22 -192 -1 -16 1 -30 5 -30 4 0 7 -27 6 -60 -1 -33 0 -60
3 -60 3 0 6 -24 7 -53 2 -28 3 -59 4 -67 5 -53 20 -191 24 -220 4 -29 3 -31
-5 -12 -5 12 -10 38 -12 57 -1 19 -5 35 -8 35 -4 0 -7 6 -7 13 -1 28 -14 91
-21 101 -5 6 -9 27 -11 46 -3 36 -16 60 -33 60 -5 0 -7 -3 -4 -8 5 -8 43 -215
50 -272 2 -19 7 -47 11 -62 4 -16 5 -28 2 -28 -6 0 -56 77 -59 92 -2 7 -5 15
-8 18 -3 3 -21 36 -40 75 -19 38 -40 75 -47 83 -29 31 -28 162 2 322 3 19 8
51 11 70 2 19 6 49 9 65 2 17 6 46 8 65 3 19 12 75 21 123 9 48 14 92 11 97
-3 6 -2 10 3 10 5 0 9 15 10 33 0 17 4 50 7 72 4 22 8 51 10 65 2 14 13 88 26
165 12 77 23 152 23 168 1 15 3 27 7 27 3 0 6 10 7 23 1 12 4 42 7 67 3 25 5
52 6 60 1 25 8 40 17 40 5 0 15 -18 22 -40z m-3674 -75 c-1 -8 -5 -17 -8 -21
-5 -4 -4 16 1 34 3 9 9 -1 7 -13z m-2941 -84 c16 -65 13 -124 -5 -105 -7 8
-22 174 -15 174 2 0 10 -31 20 -69z m2886 -21 c-3 -48 -10 -84 -16 -83 -5 2
-11 13 -11 25 -1 20 27 151 32 145 1 -1 -1 -40 -5 -87z m844 58 c2 -7 18 -60
36 -118 18 -58 36 -107 39 -110 3 -3 6 -14 8 -25 1 -11 13 -51 26 -90 47 -138
58 -184 51 -215 -4 -16 -11 -30 -17 -30 -6 0 -9 -3 -5 -6 3 -4 -1 -20 -10 -37
-17 -33 -111 -262 -118 -287 -2 -8 -20 -62 -41 -120 -20 -58 -38 -112 -39
-120 -2 -8 -4 -15 -5 -15 -1 0 -4 -12 -6 -27 -2 -14 -10 -44 -18 -65 l-13 -38
-6 65 c-4 36 -7 94 -8 130 -2 101 -5 146 -11 156 -3 5 -5 34 -3 64 2 67 -6 96
-17 60 -8 -27 -3 169 6 210 10 46 14 65 16 65 2 0 9 34 13 70 3 17 14 66 25
110 11 44 20 87 20 95 1 16 9 55 12 55 1 0 3 9 5 20 4 26 13 66 30 140 7 33
11 63 9 67 -3 5 0 8 6 8 6 0 12 -6 15 -12z m699 -95 c15 -26 28 -54 29 -62 1
-9 7 -23 12 -31 5 -8 20 -37 32 -63 20 -43 21 -51 9 -75 -13 -25 -15 -24 -45
73 -17 55 -40 121 -51 147 -11 26 -20 49 -20 52 0 15 10 2 34 -41z m2360 -139
c2 -11 11 -35 20 -54 15 -32 16 -39 2 -75 -12 -31 -15 -34 -15 -15 1 14 0 27
-1 30 -2 3 -4 19 -5 35 -6 69 -10 85 -18 85 -4 0 -5 5 -2 11 9 13 15 8 19 -17z
m-5599 -35 c7 -34 15 -60 46 -142 16 -43 27 -82 24 -87 -4 -6 -1 -10 6 -10 7
0 10 -3 7 -6 -3 -3 7 -42 23 -86 15 -45 26 -85 23 -89 -3 -5 -1 -9 5 -9 5 0 4
-12 -5 -27 -7 -16 -14 -33 -14 -39 0 -6 -6 -17 -14 -23 -11 -9 -15 -5 -20 24
-6 31 -38 114 -81 210 -7 17 -25 58 -39 93 l-27 63 22 90 c22 89 33 98 44 38z
m519 29 c1 -7 11 -48 21 -91 l19 -77 -22 -39 c-12 -21 -19 -41 -15 -45 3 -3 1
-6 -5 -6 -7 0 -12 -7 -12 -15 0 -8 -11 -38 -23 -67 -13 -29 -34 -80 -46 -113
-13 -33 -27 -71 -33 -85 l-10 -25 -10 25 c-5 14 -11 30 -12 35 -1 6 -5 16 -10
23 -4 7 -5 21 -1 30 4 9 9 29 11 44 3 15 18 63 34 108 17 44 27 80 24 80 -4 0
-1 6 5 13 6 8 8 17 4 20 -3 4 -2 7 4 7 5 0 10 6 10 13 0 19 56 188 60 183 3
-2 6 -10 7 -18z m1006 2 c0 -5 -2 -10 -4 -10 -3 0 -8 5 -11 10 -3 6 -1 10 4
10 6 0 11 -4 11 -10z m-2690 -17 c0 -5 -5 -15 -10 -23 -7 -12 -9 -10 -7 8 1
19 17 33 17 15z m1051 -30 c-12 -20 -14 -14 -5 12 4 9 9 14 11 11 3 -2 0 -13
-6 -23z m729 -8 c0 -5 -5 -3 -10 5 -5 8 -10 20 -10 25 0 6 5 3 10 -5 5 -8 10
-19 10 -25z m2366 -102 c3 -20 14 -64 24 -97 10 -34 21 -77 25 -96 10 -58 12
-64 18 -80 4 -8 9 -28 11 -45 9 -64 25 -146 30 -154 3 -4 -3 -31 -13 -60 -11
-28 -17 -51 -15 -51 3 0 2 -6 -3 -12 -4 -7 -8 -15 -8 -18 -1 -3 -5 -16 -9 -29
-9 -25 -10 -23 -61 104 -22 54 -23 70 -29 361 -5 254 -5 276 9 246 8 -18 18
-49 21 -69z m13191 65 c-3 -7 -5 -2 -5 12 0 14 2 19 5 13 2 -7 2 -19 0 -25z
m-17457 12 c0 -5 -4 -10 -10 -10 -5 0 -10 5 -10 10 0 6 5 10 10 10 6 0 10 -4
10 -10z m740 -31 c0 -11 4 -19 10 -19 5 0 10 -15 10 -32 3 -102 6 -138 10
-138 3 0 6 -18 6 -40 1 -22 -1 -40 -2 -40 -5 0 -75 139 -72 142 2 2 -7 19 -20
39 l-22 36 26 47 c21 38 29 44 40 35 8 -6 14 -20 14 -30z m1635 3 c-3 -3 2
-16 10 -28 14 -22 11 -30 -40 -135 -30 -62 -55 -108 -56 -103 -2 19 3 95 14
199 2 17 11 47 21 69 17 37 18 38 37 20 10 -9 17 -20 14 -22z m2865 -18 c7
-30 9 -58 7 -61 -3 -3 -17 12 -30 34 -17 26 -22 42 -15 50 5 7 7 17 3 23 -3 5
1 10 9 10 10 0 18 -18 26 -56z m4383 31 c-7 -21 -13 -19 -13 6 0 11 4 18 10
14 5 -3 7 -12 3 -20z m-8477 -19 c-3 -14 -7 -29 -7 -33 -1 -5 -14 -44 -29 -88
-15 -44 -38 -113 -50 -153 l-23 -74 -20 32 -20 31 30 62 c17 34 45 94 64 132
19 39 34 72 35 75 11 35 17 50 21 46 3 -3 3 -17 -1 -30z m798 -38 c-2 -4 0 -9
5 -13 10 -5 62 -109 66 -131 2 -7 14 -34 27 -60 l25 -49 -22 -24 c-25 -26 -29
-22 -39 32 -4 20 -12 37 -18 37 -6 0 -9 3 -5 6 3 3 -1 27 -10 52 -8 26 -16 54
-17 62 -1 9 -5 20 -9 26 -3 6 -9 26 -12 44 -3 18 -10 41 -15 51 -6 10 -10 24
-10 31 1 7 9 -3 19 -22 11 -19 17 -38 15 -42z m3202 16 c-3 -12 -21 -49 -40
-82 -19 -33 -32 -63 -28 -66 3 -3 1 -6 -5 -6 -23 0 -19 71 5 126 14 30 29 54
33 54 5 0 9 8 9 18 1 15 2 15 16 -3 8 -11 12 -30 10 -41z m-4986 -166 c-11
-159 -19 -206 -21 -137 -1 19 -3 45 -6 59 -8 54 -10 85 -5 95 3 5 7 20 8 34 4
36 27 121 32 117 2 -3 -1 -78 -8 -168z m2774 -33 c-2 -22 -8 -62 -13 -90 l-9
-50 -3 45 c-1 25 -4 68 -5 95 -1 28 -5 86 -8 130 l-6 80 24 -85 c15 -52 23
-101 20 -125z m4052 118 c21 -43 38 -82 39 -88 0 -5 5 -17 10 -25 13 -21 68
-133 71 -145 3 -15 82 -184 110 -237 14 -27 23 -48 20 -48 -4 0 3 -16 13 -36
11 -20 18 -41 16 -48 -4 -10 -10 -38 -21 -96 -4 -26 -10 -68 -18 -133 -4 -37
-16 -64 -16 -38 0 7 -6 27 -14 44 -7 18 -19 46 -26 62 -7 17 -15 38 -17 48 -4
24 -33 67 -45 67 -6 0 -7 -8 -3 -17 15 -37 46 -160 60 -238 2 -11 4 -20 5 -20
1 0 4 -9 7 -20 8 -26 10 -275 3 -275 -3 0 -6 -19 -7 -42 -3 -72 -7 -128 -9
-128 -2 0 -48 92 -50 100 0 3 -4 13 -8 22 -4 9 -9 22 -10 30 -1 7 -8 23 -15
36 -13 25 -37 162 -46 264 -14 160 -17 183 -39 343 -9 61 -18 128 -21 150 -3
22 -8 58 -11 80 -3 22 -7 65 -9 95 -2 30 -4 55 -5 55 -1 0 -3 71 -4 158 -1 86
-1 157 0 157 1 0 19 -35 40 -77z m-1792 15 c1 -7 8 -24 15 -37 9 -16 10 -30 3
-45 -5 -11 -24 -68 -42 -126 -18 -58 -35 -112 -38 -120 -3 -8 -7 -26 -9 -40
-2 -14 -8 -29 -14 -34 -12 -13 -12 67 0 114 5 19 12 51 15 70 5 33 12 69 16
80 1 3 3 10 4 15 6 35 29 131 33 138 6 10 14 3 17 -15z m4606 -263 c12 -27 35
-77 50 -110 15 -33 40 -87 56 -120 15 -33 29 -67 31 -75 4 -22 12 -166 18
-310 2 -69 9 -233 15 -365 5 -132 12 -336 14 -454 5 -209 4 -213 -13 -180 -10
19 -22 45 -26 59 -7 25 -41 102 -73 169 -9 19 -16 39 -14 43 1 5 -9 30 -22 57
-19 36 -26 71 -31 142 -7 93 -10 131 -19 199 -7 54 -18 173 -18 190 0 8 -9 76
-20 150 -17 120 -25 190 -31 283 -1 15 -4 27 -7 27 -3 0 -5 12 -6 28 -1 29 -6
71 -30 232 -22 145 -24 184 -9 233 6 23 10 49 8 57 -4 15 85 -163 127 -255z
m7628 258 c-1 -5 10 -34 25 -65 15 -31 29 -67 31 -80 3 -13 5 -23 6 -23 1 0 3
-22 4 -50 3 -57 11 -127 32 -270 7 -55 16 -126 18 -157 2 -31 6 -61 9 -65 3
-5 4 -18 3 -29 -2 -10 -1 -23 2 -29 4 -5 7 -21 8 -35 5 -63 16 -145 36 -260
11 -69 22 -138 24 -155 1 -16 3 -30 4 -30 1 0 3 -16 5 -35 2 -19 4 -35 5 -35
1 0 3 -12 5 -28 2 -15 9 -53 15 -84 11 -49 9 -92 -6 -183 -2 -8 -5 -28 -8 -45
-2 -16 -5 -31 -7 -32 -1 -2 -3 -16 -4 -33 -1 -16 -4 -33 -5 -37 -2 -5 -4 -15
-5 -23 -1 -8 -5 -44 -10 -80 l-8 -65 -19 75 c-22 92 -30 130 -29 153 0 9 -5
17 -10 17 -6 0 -8 4 -4 9 3 5 -6 53 -20 106 -14 53 -26 110 -27 126 -1 16 -5
29 -8 29 -4 0 -7 6 -8 13 -3 35 -31 167 -42 203 -6 17 -13 46 -16 65 -3 19 -7
45 -9 59 -2 14 -6 34 -9 45 -29 119 -55 231 -61 270 -2 11 -4 20 -5 20 -1 0
-3 9 -5 20 -3 20 -9 53 -23 115 -5 22 -3 54 5 89 8 29 12 59 9 67 -3 7 -1 16
4 19 5 3 9 13 8 23 0 9 3 31 7 47 4 17 8 37 10 45 2 8 4 15 5 15 1 0 4 14 6
30 2 17 12 62 20 100 23 102 26 117 29 145 4 30 4 30 10 30 3 0 4 -3 3 -7z
m-16793 -34 c-4 -5 -3 -14 1 -21 4 -7 9 -24 10 -38 1 -14 9 -50 18 -80 8 -30
17 -68 20 -85 3 -16 8 -41 11 -55 4 -14 8 -34 10 -45 2 -11 7 -40 12 -65 7
-38 5 -52 -14 -88 l-22 -44 -6 36 c-4 19 -10 59 -14 87 -3 29 -11 54 -17 56
-8 3 -10 -8 -8 -29 2 -18 5 -72 5 -120 1 -72 -3 -95 -22 -135 -13 -26 -29 -54
-35 -61 -7 -6 -15 -21 -19 -32 -3 -10 -12 -17 -19 -14 -10 4 -12 -2 -8 -23 4
-23 2 -26 -9 -15 -11 10 -14 50 -16 157 -1 80 -5 145 -9 145 -4 0 -9 -5 -10
-12 -2 -7 -6 -24 -9 -38 -4 -14 -7 -33 -7 -42 1 -10 -3 -18 -7 -18 -4 0 -8 6
-8 13 0 6 -10 39 -21 72 -11 34 -20 67 -18 75 2 8 22 56 44 105 107 230 158
332 165 328 4 -2 5 -9 2 -14z m1940 -274 c15 -33 36 -78 48 -100 l20 -41 -23
-77 c-13 -42 -27 -77 -33 -77 -5 0 -7 6 -4 14 8 19 -14 86 -27 86 -7 0 -10
-36 -8 -112 4 -125 -4 -198 -20 -198 -6 0 -8 10 -4 26 5 19 3 25 -6 22 -8 -3
-30 25 -56 71 l-44 76 4 123 c3 85 1 121 -6 119 -6 -2 -11 -8 -12 -13 -3 -52
-18 -142 -25 -154 -8 -13 -9 -13 -7 0 2 8 -7 29 -18 45 -20 28 -21 33 -8 81 7
29 15 65 18 80 2 16 5 29 6 29 2 0 10 55 12 83 1 6 5 12 10 12 5 0 6 5 3 10
-4 6 0 34 9 63 14 45 22 85 25 121 1 9 90 -168 146 -289z m3434 120 c17 -38
38 -82 47 -97 14 -26 13 -33 -11 -100 -28 -79 -33 -95 -34 -117 -2 -24 -12 -5
-17 31 -3 18 -11 69 -19 113 -12 70 -18 113 -30 215 -2 14 -4 25 -5 25 -1 0
-3 14 -4 30 -2 17 -4 35 -6 40 -1 6 -2 15 -1 20 2 10 15 -16 80 -160z m-6018
103 c-3 -21 -6 -26 -9 -15 -3 17 3 47 11 47 2 0 1 -15 -2 -32z m853 -21 c1 -7
10 -27 20 -45 16 -31 16 -35 0 -72 -18 -40 -30 -51 -31 -27 0 18 -13 126 -19
167 -6 35 -6 35 11 12 9 -13 18 -29 19 -35z m371 12 c6 -48 14 -87 30 -144 8
-27 16 -68 19 -90 2 -22 5 -40 7 -40 2 0 6 -26 11 -62 1 -13 6 -23 11 -23 4 0
6 -3 4 -7 -2 -5 -1 -34 2 -65 4 -32 4 -59 -1 -60 -4 -2 -9 -13 -11 -25 -4 -29
-17 -42 -17 -18 0 10 -8 32 -19 49 -14 23 -19 51 -19 106 -1 114 0 109 -22
103 -11 -3 -18 -9 -15 -13 3 -4 2 -29 -1 -54 l-7 -47 -24 40 c-23 38 -36 95
-25 106 3 3 7 16 9 28 2 12 10 54 19 92 41 182 42 185 49 124z m1033 11 c-5
-17 -8 -39 -5 -50 3 -11 1 -20 -3 -20 -5 0 -8 -17 -8 -37 2 -88 -1 -92 -28
-41 l-24 47 32 66 c33 67 55 88 36 35z m-383 11 c-3 -5 -1 -12 4 -16 6 -3 8
-12 5 -19 -3 -8 -1 -17 5 -20 6 -4 8 -13 5 -20 -3 -7 4 -49 15 -92 33 -134 33
-150 -1 -203 -18 -27 -28 -37 -25 -24 3 13 2 25 -2 28 -4 2 -7 14 -6 27 2 24
-11 48 -26 48 -5 0 -9 -44 -9 -97 0 -82 -4 -102 -20 -123 -11 -14 -20 -34 -21
-45 -1 -33 -27 46 -28 85 0 19 6 61 13 93 8 31 12 57 9 57 -3 0 -1 6 4 13 6 6
9 20 8 30 -2 9 1 17 6 17 6 0 7 4 4 10 -3 5 5 57 19 114 15 57 26 113 26 125
0 11 5 21 11 21 5 0 8 -4 4 -9z m1212 -88 c-2 -21 -4 -6 -4 32 0 39 2 55 4 38
2 -18 2 -50 0 -70z m3733 87 c0 -5 -4 -10 -10 -10 -5 0 -10 5 -10 10 0 6 5 10
10 10 6 0 10 -4 10 -10z m-2026 -216 c-13 -17 -24 -36 -24 -41 0 -6 -7 -13
-15 -17 -10 -4 -17 3 -21 22 -3 15 -10 39 -16 54 -5 15 -7 49 -3 80 4 29 9 62
10 73 1 11 3 25 4 30 2 6 22 -30 45 -80 l43 -90 -23 -31z m2031 176 c3 -5 1
-10 -4 -10 -6 0 -11 5 -11 10 0 6 2 10 4 10 3 0 8 -4 11 -10z m-1821 -77 c-3
-57 -12 -105 -23 -115 -4 -4 -14 5 -24 21 -16 27 -16 30 8 77 14 27 25 55 25
62 0 7 4 11 8 8 5 -3 8 -27 6 -53z m1821 47 c3 -5 1 -10 -4 -10 -6 0 -11 5
-11 10 0 6 2 10 4 10 3 0 8 -4 11 -10z m-2244 -65 c1 -22 -1 -47 -5 -56 -4 -9
-6 -20 -5 -25 1 -5 0 -11 -1 -14 -3 -9 -8 -35 -20 -105 -12 -77 -17 -86 -30
-65 -12 18 -7 65 15 150 24 93 26 101 26 139 1 45 17 26 20 -24z m6346 -55
c53 -114 78 -171 98 -215 9 -22 28 -62 42 -90 25 -49 36 -101 26 -119 -3 -5
-7 -34 -10 -64 -2 -31 -5 -57 -6 -59 -2 -1 -22 32 -45 75 -23 42 -55 98 -70
123 -15 25 -40 67 -56 95 -16 27 -41 67 -56 88 l-27 39 24 101 c29 124 33 137
41 116 2 -8 20 -49 39 -90z m5393 26 c0 -7 7 -19 15 -26 8 -7 15 -20 15 -29 0
-9 11 -34 24 -56 20 -32 22 -44 14 -65 -26 -64 -49 -126 -53 -140 -2 -8 -16
-49 -30 -90 -28 -80 -36 -105 -39 -132 -5 -36 -15 -28 -35 27 -12 30 -27 66
-34 78 -11 19 -14 40 -7 57 1 3 3 16 6 30 2 14 16 81 31 150 14 69 27 134 29
145 1 11 3 22 5 25 1 3 3 10 4 15 0 6 5 28 9 49 l7 39 20 -32 c10 -17 19 -38
19 -45z m-3546 -51 c10 -66 17 -102 30 -155 11 -48 10 -62 -5 -107 -10 -28
-15 -54 -12 -57 4 -3 2 -6 -4 -6 -5 0 -10 17 -11 38 0 20 -3 69 -5 107 -17
230 -13 312 7 180z m6932 77 c-2 -4 2 -36 10 -72 15 -75 12 -88 -10 -35 -18
42 -22 130 -6 120 6 -4 8 -9 6 -13z m-12220 -11 c-4 -5 -2 -21 4 -35 9 -25 3
-122 -8 -112 -9 10 -10 156 0 156 5 0 7 -4 4 -9z m6947 -31 c4 -19 9 -51 13
-70 3 -19 8 -44 9 -55 1 -11 3 -20 5 -20 1 0 3 -9 4 -20 2 -11 11 -55 21 -98
9 -43 15 -80 12 -83 -3 -3 -19 23 -36 58 -28 58 -31 74 -37 198 -6 129 -3 165
9 90z m-9088 -62 c7 -32 9 -58 4 -58 -5 0 -9 -21 -10 -47 -1 -44 -2 -45 -9
-18 -5 17 -10 72 -12 123 -5 102 6 102 27 0z m865 40 c-1 -30 -3 -38 -9 -28
-8 14 -4 70 5 70 2 0 4 -19 4 -42z m2927 20 c-3 -8 -6 -5 -6 6 -1 11 2 17 5
13 3 -3 4 -12 1 -19z m-5075 -25 c0 -4 9 -30 19 -56 11 -26 19 -58 19 -70 -1
-19 -3 -18 -18 10 -11 21 -21 30 -30 24 -12 -7 -33 -113 -48 -236 -3 -33 -8
-71 -11 -85 -2 -14 -5 -34 -6 -45 -2 -11 -5 -24 -8 -30 -3 -5 -4 -20 -3 -32 0
-13 -2 -23 -5 -23 -4 0 -6 -13 -5 -28 1 -16 -6 -71 -15 -123 -15 -78 -19 -90
-26 -69 -11 30 -14 71 -6 85 2 5 6 32 8 60 2 27 12 95 23 150 11 55 22 116 24
135 3 19 6 36 7 38 1 1 3 11 4 22 1 11 3 21 5 23 1 1 3 11 4 23 1 11 7 40 13
65 7 24 17 64 23 89 6 25 13 54 15 65 2 11 4 22 4 24 2 7 13 -7 13 -16z m5065
-15 c-3 -8 -6 -5 -6 6 -1 11 2 17 5 13 3 -3 4 -12 1 -19z m-5929 -4 c-4 -3 7
-30 23 -61 16 -30 29 -61 29 -69 0 -8 5 -14 10 -14 6 0 10 -6 10 -12 0 -7 13
-39 29 -72 27 -55 31 -96 8 -96 -6 0 -8 -3 -5 -6 4 -3 -4 -29 -17 -57 -13 -28
-22 -54 -19 -59 3 -4 1 -8 -4 -8 -5 0 -15 21 -22 48 -6 26 -16 58 -22 72 -6
14 -12 61 -15 105 -3 76 -9 140 -17 195 -3 26 1 40 11 40 4 0 4 -3 1 -6z
m-2202 -118 c-2 -6 -13 -44 -25 -83 -23 -73 -41 -94 -41 -48 0 14 -5 25 -12
25 -6 0 -9 3 -5 6 3 4 0 22 -8 41 -13 31 -13 38 2 66 10 18 18 34 18 37 1 3 7
18 14 34 l12 30 23 -49 c13 -26 23 -53 22 -59z m1154 64 c11 -22 17 -40 14
-40 -4 0 1 -9 11 -20 16 -17 16 -23 4 -52 -8 -18 -14 -35 -14 -38 -5 -31 -18
-70 -25 -70 -5 0 -16 26 -25 58 -9 31 -19 64 -22 72 -3 8 -5 19 -4 23 0 4 3
15 5 25 4 20 29 82 33 82 1 0 12 -18 23 -40z m6966 8 c-22 -110 -38 -328 -40
-545 -1 -149 -5 -186 -13 -131 -2 12 -8 27 -13 33 -5 7 -8 14 -5 17 3 2 -2 39
-10 81 -13 67 -13 86 -1 145 16 77 27 134 32 177 9 80 45 255 52 255 2 0 2
-14 -2 -32z m3889 -98 c0 -66 -4 -120 -9 -120 -4 0 -6 7 -2 15 3 8 0 15 -6 15
-6 0 -9 3 -6 6 4 3 0 25 -9 49 -11 33 -12 49 -3 65 6 11 8 25 5 30 -3 6 -1 10
4 10 6 0 10 3 10 8 -3 18 2 42 9 42 4 0 7 -54 7 -120z m6172 48 c-3 -8 -6 -5
-6 6 -1 11 2 17 5 13 3 -3 4 -12 1 -19z m-14270 -56 c3 -13 -6 -55 -23 -100
-31 -85 -31 -83 -33 -114 -2 -23 -2 -23 -12 2 -6 14 -15 46 -20 72 -10 43 -8
53 17 105 29 61 31 66 33 86 2 16 30 -21 38 -51z m-833 16 c16 -76 18 -108 7
-108 -6 0 -11 17 -11 37 0 20 -3 34 -6 31 -7 -8 -12 -101 -6 -112 8 -15 14
-187 7 -215 -12 -48 -28 6 -26 88 2 42 3 115 4 163 1 49 5 88 9 88 3 0 4 14 2
30 -7 41 12 38 20 -2z m1783 -20 c-2 -13 -4 -5 -4 17 -1 22 1 32 4 23 2 -10 2
-28 0 -40z m9030 20 c0 -7 16 -46 36 -85 19 -40 33 -73 30 -73 -3 0 0 -7 7
-15 11 -13 9 -88 -5 -165 -2 -14 -7 -45 -10 -70 -3 -25 -13 -88 -21 -140 -23
-142 -23 -141 -29 -195 -3 -27 -8 -63 -12 -80 -3 -16 -6 -39 -8 -50 -1 -11 -3
-22 -4 -25 -4 -9 -53 165 -53 188 0 12 -3 22 -7 22 -4 0 -7 9 -8 21 -1 11 -9
43 -18 70 -12 35 -14 62 -9 92 4 23 8 51 10 62 1 11 3 21 4 23 3 2 4 5 13 52
13 62 15 74 21 120 3 25 12 70 20 100 8 30 17 75 21 100 6 41 12 60 19 60 1 0
3 -6 3 -12z m-2451 -173 c18 -38 53 -117 79 -175 25 -58 55 -123 66 -145 18
-36 20 -57 17 -228 l-3 -187 -48 117 c-27 65 -49 124 -49 131 -1 6 -5 12 -10
12 -4 0 -7 3 -6 8 1 8 -2 17 -47 127 -62 150 -86 210 -89 220 -4 13 -15 44
-27 73 -6 15 -6 38 1 63 6 22 8 44 5 49 -3 6 -2 10 2 10 5 0 10 10 11 23 1 23
8 69 11 77 2 5 31 -53 87 -175z m-7058 128 c1 -21 13 -91 27 -157 24 -116 26
-157 5 -102 -5 15 -10 34 -10 42 0 8 -6 14 -13 14 -11 0 -12 -11 -6 -52 12
-83 37 -261 38 -278 4 -66 10 -111 16 -120 3 -5 4 -10 2 -10 -16 0 -48 79 -50
121 -1 27 -5 49 -8 49 -4 0 -7 12 -8 28 -2 55 -6 97 -12 107 -4 8 -4 316 0
378 2 32 16 17 19 -20z m13495 -82 c0 -8 12 -49 26 -91 l26 -76 -17 -94 c-10
-52 -16 -100 -13 -107 2 -7 0 -15 -4 -18 -5 -2 -7 -21 -5 -40 1 -19 -1 -35 -5
-35 -4 0 -8 -19 -8 -42 -1 -39 -7 -95 -13 -108 -3 -7 -6 -36 -9 -85 -2 -35 -3
-37 -11 -17 -5 12 -11 53 -13 91 -3 38 -7 73 -10 77 -3 5 -4 45 -2 89 2 44 6
148 9 230 3 83 8 188 12 235 l7 85 14 -40 c8 -22 15 -47 16 -54z m-10459 49
c2 -14 19 -67 36 -119 17 -51 32 -103 35 -115 2 -11 4 -21 5 -21 1 0 3 -8 5
-17 2 -10 10 -37 18 -60 15 -45 41 -127 43 -140 1 -5 2 -9 4 -10 6 -9 60 -301
56 -305 -3 -4 -47 94 -50 112 -3 19 -39 110 -49 122 -5 7 -6 16 -3 22 3 5 1
11 -4 13 -6 2 -13 12 -15 23 -2 11 -4 21 -4 23 -1 1 -1 5 0 8 0 4 -3 10 -8 13
-4 3 -17 31 -27 61 -10 30 -25 65 -33 78 -7 12 -11 22 -7 22 4 0 0 7 -7 17
-14 17 -22 203 -12 271 6 37 10 38 17 2z m-2225 -67 c0 -25 -1 -26 -9 -8 -12
27 -12 35 0 35 6 0 10 -12 9 -27z m238 -25 c-3 -8 -6 -5 -6 6 -1 11 2 17 5 13
3 -3 4 -12 1 -19z m-263 -33 c2 -17 5 -30 6 -30 1 0 3 -7 5 -15 2 -8 7 -26 10
-40 14 -54 24 -239 27 -488 2 -144 6 -262 10 -262 10 0 1 -52 -21 -126 -12
-36 -19 -69 -17 -73 3 -4 1 -13 -5 -21 -7 -13 -9 -13 -10 0 -1 18 -5 35 -17
77 -6 17 -9 33 -7 35 3 3 14 76 19 133 2 17 4 30 6 30 2 0 7 45 14 155 3 47 8
118 11 158 4 47 2 72 -5 72 -5 0 -11 -8 -12 -17 0 -10 -3 -29 -4 -43 -2 -14
-6 -43 -8 -65 -2 -22 -5 -40 -6 -40 -2 0 -4 -9 -5 -21 -8 -79 -36 -194 -46
-194 -5 0 -8 26 -9 58 0 60 -6 147 -10 147 -1 0 -3 16 -4 35 -1 19 -4 40 -7
45 -7 13 -3 179 6 225 9 49 15 90 18 125 2 17 13 56 25 88 12 31 22 59 22 62
0 3 0 10 0 17 0 20 9 3 14 -27z m-5048 -200 c-14 -55 -26 -109 -26 -119 0 -17
-25 -18 -25 0 -1 5 -4 26 -8 46 -5 21 -3 65 3 100 7 35 13 72 14 83 2 11 7 37
11 59 l8 39 24 -54 25 -53 -26 -101z m434 195 c0 -5 -4 -10 -10 -10 -5 0 -10
5 -10 10 0 6 5 10 10 10 6 0 10 -4 10 -10z m454 -81 c-2 -4 0 -10 5 -14 5 -3
8 -14 6 -25 -2 -11 0 -22 4 -24 8 -5 6 -137 -2 -171 -3 -11 -6 -26 -6 -34 -2
-35 -13 3 -58 209 -9 43 -8 54 11 104 l20 48 12 -43 c7 -23 11 -46 8 -50z
m8804 31 c8 -19 16 -42 18 -50 2 -9 15 -37 29 -64 14 -27 24 -51 21 -54 -3 -2
0 -14 6 -25 12 -23 18 -257 7 -257 -4 0 -10 12 -14 28 -3 15 -12 34 -19 42 -8
8 -28 42 -46 75 -18 33 -36 62 -40 65 -7 5 -22 43 -26 70 -2 8 1 19 5 25 5 5
7 19 5 29 -4 26 28 184 34 166 3 -8 11 -31 20 -50z m-7412 -47 c1 -7 -8 -43
-21 -80 -12 -38 -28 -92 -35 -120 -12 -44 -24 -61 -25 -35 -1 4 -7 31 -14 60
-10 40 -10 59 -2 80 6 15 13 37 16 50 2 12 12 49 21 81 l18 59 19 -41 c11 -23
21 -48 23 -54z m13148 3 c2 -6 8 -22 14 -36 47 -107 50 -116 37 -146 -22 -52
-57 -159 -60 -179 -1 -11 -3 -27 -4 -35 -3 -19 -20 23 -25 59 -2 14 -8 37 -14
51 -5 14 -8 28 -5 33 2 4 0 7 -5 7 -5 0 -10 8 -11 18 -5 44 2 197 9 197 2 0 4
14 6 30 4 38 10 77 13 90 3 9 41 -66 45 -89z m-11538 14 c-1 -33 -6 -60 -11
-61 -13 -1 -24 34 -15 46 9 11 10 15 10 50 0 14 4 25 8 25 5 0 8 -27 8 -60z
m-4667 18 c0 -13 4 -42 9 -65 5 -24 8 -43 6 -43 -2 0 -12 21 -23 46 -17 37
-18 49 -8 65 15 24 17 24 16 -3z m1981 -21 c0 -7 8 -29 18 -49 17 -33 18 -42
6 -100 -7 -34 -15 -84 -17 -111 -7 -75 -19 -75 -20 1 0 12 -3 22 -6 22 -5 0
-7 157 -3 233 2 27 22 30 22 4z m444 8 c7 -19 -22 -95 -36 -95 -7 0 -7 4 0 13
5 6 10 24 11 40 2 48 4 57 12 57 4 0 10 -7 13 -15z m15014 -27 c9 -22 9 -26
-2 -22 -8 3 -16 19 -18 35 -5 33 2 28 20 -13z m-16991 -11 c4 -47 4 -86 -1
-142 -6 -69 -17 -159 -21 -163 -2 -2 -6 25 -10 60 -4 35 -13 92 -19 127 -11
60 -10 67 12 113 25 54 36 55 39 5z m8760 -16 c-1 -39 -5 -54 -11 -44 -7 13 0
103 9 103 2 0 3 -27 2 -59z m5476 17 c-2 -5 1 -8 8 -8 7 0 10 -3 6 -6 -5 -5
43 -115 68 -154 18 -28 22 -96 11 -163 -6 -38 -16 -110 -21 -157 -2 -14 -4
-25 -5 -25 0 0 -3 -29 -6 -65 -3 -36 -13 -123 -23 -195 -22 -158 -23 -167 -24
-232 -1 -40 -4 -49 -14 -41 -7 5 -12 13 -11 16 1 4 -6 31 -16 59 -15 45 -17
74 -11 200 11 289 25 679 26 748 0 46 3 63 8 50 5 -11 7 -23 4 -27z m-7692 10
c1 -13 1 -32 1 -43 -1 -11 -3 -39 -4 -62 -3 -71 -13 -37 -13 48 0 43 3 79 7
79 5 0 9 -10 9 -22z m3868 -111 c17 -37 31 -72 31 -77 0 -5 9 -24 19 -42 16
-27 19 -50 18 -120 -1 -48 -6 -90 -10 -95 -5 -4 -7 -3 -6 2 2 6 -5 27 -14 49
-9 21 -17 42 -17 47 0 4 -6 14 -14 22 -8 8 -16 23 -18 33 -2 10 -5 21 -8 24
-3 3 -15 26 -27 53 -24 49 -29 114 -16 190 l6 38 12 -28 c7 -15 27 -59 44 -96z
m1136 -9 c3 -15 10 -40 16 -55 7 -15 13 -35 14 -43 1 -13 36 -130 53 -180 3
-8 6 -22 7 -30 2 -8 13 -46 25 -84 12 -38 24 -78 26 -90 6 -26 7 -30 23 -86 8
-25 20 -62 27 -83 8 -20 19 -56 25 -80 14 -51 19 -196 7 -203 -4 -3 -8 -2 -9
3 -2 20 -10 44 -42 126 -19 48 -33 87 -31 87 2 0 -8 26 -22 58 -14 31 -26 65
-27 75 -1 9 -5 17 -9 17 -4 0 -8 6 -8 14 0 8 -14 47 -31 87 -16 41 -32 81 -34
89 -2 8 -4 16 -5 18 -2 1 -3 5 -4 10 -3 17 -70 178 -79 189 -12 16 -2 119 23
239 l13 59 19 -55 c10 -30 21 -67 23 -82z m3850 90 c4 -18 7 -36 6 -40 0 -5 3
-8 7 -8 4 0 9 -11 10 -23 1 -13 5 -35 10 -48 6 -15 4 -42 -4 -74 -15 -57 -23
-95 -31 -145 -12 -75 -18 -74 -43 2 -29 84 -29 92 -5 208 7 34 25 143 25 153
0 21 19 3 25 -25z m-12499 -25 c-11 -11 -17 4 -9 23 7 18 8 18 11 1 2 -10 1
-21 -2 -24z m14110 -19 c3 -34 -9 -21 -14 14 -2 15 0 23 4 20 4 -4 8 -19 10
-34z m-4066 -194 c12 -41 31 -102 42 -135 12 -33 22 -69 23 -80 1 -11 17 -67
35 -125 20 -63 35 -133 37 -175 5 -77 9 -127 12 -135 3 -9 14 -195 15 -245 0
-60 -11 -214 -19 -270 -3 -22 -7 -57 -9 -78 -4 -53 -11 -54 -25 -5 -7 24 -17
48 -22 54 -6 7 -11 20 -13 30 -3 11 -25 75 -50 143 -26 68 -49 142 -51 165 -3
22 -12 77 -19 121 -8 44 -18 100 -21 125 -11 70 -13 85 -15 85 -12 0 -14 173
-5 400 3 66 7 163 9 215 1 52 4 104 5 115 2 20 29 -58 71 -205z m-10041 135
c1 -36 -2 -65 -6 -65 -6 0 -9 111 -4 128 5 13 8 -9 10 -63z m1022 33 c1 -23 4
-39 8 -48 2 -3 4 -18 6 -35 1 -16 6 -57 10 -90 5 -46 4 -56 -5 -42 -6 9 -9 21
-5 26 3 5 2 11 -3 13 -11 4 -52 106 -52 129 0 23 21 69 32 69 4 0 9 -10 9 -22z
m255 -74 c-12 -32 -15 -35 -15 -14 -1 14 2 43 6 65 6 38 7 38 15 14 5 -16 3
-38 -6 -65z m7887 29 c0 -26 2 -52 4 -56 3 -5 7 -59 9 -120 2 -61 6 -124 10
-139 7 -32 3 -33 -36 -13 -20 10 -27 20 -23 31 3 8 0 72 -7 142 -12 125 -12
127 11 169 13 23 25 40 27 38 2 -2 4 -26 5 -52z m-8801 35 c3 -7 -1 -31 -8
-53 l-12 -40 -1 53 c-1 48 11 70 21 40z m7434 -99 c1 -82 -1 -97 -11 -80 -6
12 -10 49 -8 84 2 34 4 70 4 80 0 9 3 17 7 17 4 0 7 -46 8 -101z m4391 59 c-3
-7 -5 -2 -5 12 0 14 2 19 5 13 2 -7 2 -19 0 -25z m-8270 -10 c-3 -8 -6 -5 -6
6 -1 11 2 17 5 13 3 -3 4 -12 1 -19z m6490 -38 c3 -8 7 -22 8 -30 1 -8 8 -35
15 -60 20 -73 20 -79 0 -205 -10 -66 -19 -109 -21 -95 -3 35 -6 54 -9 60 -1 3
-4 59 -5 125 -1 66 -4 120 -5 120 -1 0 -3 27 -4 60 -3 63 6 111 12 65 2 -14 6
-32 9 -40z m-813 2 c3 -23 10 -51 15 -61 6 -10 8 -21 5 -24 -3 -3 4 -38 16
-77 26 -86 29 -100 35 -160 3 -25 7 -56 9 -70 5 -24 4 -24 -9 -6 -8 10 -12 23
-9 28 3 5 2 14 -4 21 -5 7 -23 49 -41 93 -32 81 -37 122 -32 278 1 40 8 30 15
-22z m-7639 -24 c4 -14 2 -29 -3 -32 -6 -3 -13 8 -17 26 -4 18 -9 42 -12 53
-5 19 -4 19 10 -1 9 -11 19 -32 22 -46z m1685 52 c0 -5 -4 -10 -10 -10 -5 0
-10 5 -10 10 0 6 5 10 10 10 6 0 10 -4 10 -10z m8582 -104 c-1 -10 -5 -23 -10
-28 -7 -7 -10 -1 -9 13 0 13 -2 47 -6 74 l-7 50 16 -45 c9 -25 16 -54 16 -64z
m-8586 -26 c0 -60 -3 -110 -6 -110 -8 0 -9 10 -9 65 0 40 6 148 8 153 5 11 7
-13 7 -108z m-539 68 c-3 -8 -6 -5 -6 6 -1 11 2 17 5 13 3 -3 4 -12 1 -19z
m-2722 2 c3 -5 1 -10 -4 -10 -6 0 -11 5 -11 10 0 6 2 10 4 10 3 0 8 -4 11 -10z
m890 0 c3 -5 1 -10 -4 -10 -6 0 -11 5 -11 10 0 6 2 10 4 10 3 0 8 -4 11 -10z
m3079 -305 c4 -44 9 -100 12 -125 4 -25 8 -56 9 -70 5 -39 13 -88 31 -180 8
-47 17 -94 19 -105 2 -11 4 -20 5 -20 2 0 4 -9 6 -20 6 -39 12 -70 19 -95 15
-60 17 -98 5 -105 -9 -5 -11 -4 -6 3 4 7 3 12 -1 12 -5 0 -17 24 -28 53 -10
28 -27 68 -38 87 -25 44 -27 54 -42 190 -21 188 -27 365 -18 530 l7 155 7
-115 c4 -63 10 -151 13 -195z m-6944 285 c0 -5 -4 -10 -10 -10 -5 0 -10 5 -10
10 0 6 5 10 10 10 6 0 10 -4 10 -10z m2981 -52 c1 -29 0 -69 -1 -89 -1 -21 4
-40 9 -44 6 -3 9 -10 6 -14 -6 -10 -14 -117 -15 -193 0 -32 -3 -58 -8 -58 -4
0 -15 27 -26 59 -16 50 -18 76 -12 172 9 153 10 159 19 159 4 0 6 3 6 8 -4 23
2 52 11 52 6 0 10 -24 11 -52z m5450 -18 c5 0 9 -4 9 -9 0 -5 10 -31 22 -58
11 -26 23 -56 24 -65 2 -9 11 -36 19 -60 38 -101 38 -108 25 -278 -7 -91 -16
-221 -20 -290 -4 -69 -8 -105 -10 -80 -3 46 -6 71 -10 80 -1 3 -3 21 -5 40 -2
19 -6 50 -9 67 -4 18 -8 52 -11 75 -2 24 -11 87 -20 141 -9 54 -13 102 -10
107 4 6 2 10 -4 10 -5 0 -10 15 -10 33 0 36 -8 112 -11 112 -1 0 -3 14 -4 30
-1 17 -6 56 -10 88 -4 31 -4 72 0 90 l7 32 10 -32 c6 -18 14 -33 18 -33z
m-5969 -65 c0 -22 -3 -51 -6 -65 -4 -14 -9 -50 -12 -80 -4 -30 -17 -106 -29
-169 -13 -63 -21 -125 -19 -137 2 -13 1 -25 -4 -28 -4 -2 -8 3 -9 12 -3 55 -3
75 2 147 3 44 7 125 9 180 2 55 11 133 21 174 l17 74 15 -34 c8 -19 15 -52 15
-74z m14364 38 c-3 -7 -1 -13 5 -13 6 0 9 -14 6 -35 -3 -19 -1 -35 3 -35 10 0
7 -33 -4 -41 -4 -4 -12 -33 -16 -65 -6 -45 -8 -21 -8 96 -1 110 2 148 9 131 5
-14 7 -31 5 -38z m-12768 -10 c0 -32 2 -82 4 -111 3 -29 1 -55 -4 -58 -4 -3
-8 -4 -8 -2 -9 59 -10 228 -2 228 5 0 10 -25 10 -57z m14246 11 c7 -36 28
-107 39 -133 11 -27 14 -37 21 -86 3 -16 7 -39 10 -50 12 -50 65 -323 71 -365
1 -14 4 -27 5 -30 1 -3 2 -9 0 -15 -1 -5 -3 -23 -5 -40 -2 -16 -11 -67 -21
-113 -19 -94 -37 -98 -40 -8 -1 29 -3 58 -6 62 -2 5 -4 60 -4 122 1 61 -1 112
-4 112 -3 0 -5 17 -6 38 -1 61 -14 164 -34 284 -10 61 -16 116 -14 120 3 4 1
8 -3 8 -5 0 -10 13 -11 30 -1 16 -6 40 -11 54 -6 13 -7 27 -4 30 8 8 13 3 17
-20z m-10309 6 c3 -5 1 -10 -4 -10 -6 0 -11 5 -11 10 0 6 2 10 4 10 3 0 8 -4
11 -10z m-5169 -37 c1 -10 4 -30 7 -45 3 -15 2 -30 -3 -33 -4 -3 -7 -16 -5
-30 1 -14 -1 -25 -5 -25 -4 0 -6 -10 -6 -22 1 -13 -1 -39 -5 -58 -4 -19 -6 24
-4 95 4 150 3 135 13 135 4 0 8 -8 8 -17z m4514 3 c0 -7 13 -45 29 -85 17 -39
28 -71 26 -71 -3 0 6 -30 19 -67 23 -65 50 -150 52 -165 1 -5 3 -11 4 -15 1
-5 2 -11 1 -15 0 -5 3 -8 9 -8 5 0 7 -6 4 -13 -2 -7 7 -48 21 -92 14 -43 24
-84 21 -92 -3 -7 -1 -13 5 -13 6 0 9 -7 5 -15 -3 -8 -1 -15 5 -15 6 0 9 -6 6
-14 -3 -8 -3 -17 1 -21 4 -4 7 -10 8 -13 3 -29 20 -96 35 -141 10 -29 16 -57
14 -61 -3 -5 -1 -11 4 -14 9 -6 8 -92 -2 -131 -34 -133 -34 -132 -41 -100 -3
17 -8 46 -11 65 -3 19 -7 46 -10 60 -2 13 -7 42 -10 65 -4 22 -13 69 -21 105
-8 36 -17 76 -19 90 -2 14 -8 46 -13 72 -5 26 -7 50 -4 53 3 3 0 5 -7 5 -7 0
-10 4 -7 8 3 4 0 28 -5 53 -6 24 -13 55 -15 69 -3 14 -11 49 -19 79 -8 30 -12
58 -9 63 3 4 1 8 -4 8 -5 0 -8 10 -8 23 1 12 0 27 -3 32 -3 6 -6 17 -8 25 -3
25 -34 160 -53 233 -10 37 -14 67 -9 67 5 0 9 -6 9 -14z m1796 -75 c-3 -5 1
-14 9 -21 8 -7 15 -19 15 -28 0 -8 11 -35 25 -59 14 -23 23 -43 19 -43 -3 0
-1 -7 6 -15 7 -8 9 -15 5 -15 -4 0 -3 -6 3 -12 5 -7 25 -51 45 -98 33 -82 34
-89 30 -190 -2 -58 -5 -149 -5 -202 -1 -54 -3 -98 -4 -98 -4 0 -67 203 -70
225 -1 11 -4 29 -7 40 -12 45 -56 232 -61 260 -2 17 -8 41 -11 55 -4 14 -9 75
-11 135 -4 82 -2 106 6 92 6 -9 9 -21 6 -26z m783 -61 c-1 -36 -2 -40 -8 -20
-4 14 -10 48 -14 75 -5 49 -5 49 8 20 8 -16 14 -50 14 -75z m5440 -10 c0 -21
-3 -19 -14 12 -7 20 -12 45 -10 55 2 10 4 25 5 33 3 19 19 -67 19 -100z
m-4207 -187 c2 -40 6 -73 9 -73 4 0 7 -12 8 -27 0 -16 3 -46 5 -68 3 -22 7
-58 10 -80 2 -22 5 -44 6 -50 5 -21 0 -48 -7 -41 -5 4 -9 12 -9 17 -1 5 -2 10
-3 12 -2 1 -4 18 -6 37 -1 19 -12 76 -24 125 -11 50 -23 108 -26 130 -4 22 -9
54 -11 70 -6 33 -6 80 0 135 2 19 5 49 6 65 4 44 39 -168 42 -252z m6725 154
c1 -61 10 -181 18 -265 9 -84 14 -159 12 -166 -3 -8 -2 -17 3 -22 5 -5 11 -58
14 -119 3 -60 6 -111 7 -112 1 -2 3 -21 4 -43 1 -22 4 -42 5 -45 1 -3 3 -22 4
-42 2 -21 6 -72 10 -113 4 -41 5 -72 3 -70 -3 3 -27 48 -54 101 -44 86 -49
102 -45 150 1 30 4 232 6 449 2 217 4 398 5 403 4 22 6 -4 8 -106z m-3721 48
c2 -5 12 -36 24 -68 15 -42 22 -92 26 -185 9 -196 11 -241 19 -327 7 -84 2
-101 -9 -25 -14 109 -17 128 -28 185 -6 33 -12 80 -12 105 -1 25 -5 50 -9 56
-3 6 -5 21 -2 32 2 12 0 24 -4 27 -5 2 -7 18 -6 35 1 16 0 30 -4 30 -4 0 -7
12 -7 28 0 15 -4 56 -8 92 -6 54 -5 62 6 45 7 -11 13 -24 14 -30z m-1769 -7
c-3 -7 -5 -2 -5 12 0 14 2 19 5 13 2 -7 2 -19 0 -25z m3733 10 c0 -13 10 -52
21 -88 11 -36 23 -92 26 -125 8 -94 12 -399 5 -410 -3 -5 -5 -37 -5 -70 l2
-60 -20 70 c-11 39 -21 79 -24 90 -11 54 -15 69 -39 135 -15 39 -24 75 -21 80
3 4 -2 13 -10 20 -9 8 -13 22 -10 39 3 14 8 42 11 61 24 171 46 280 56 280 5
0 8 -10 8 -22z m-7756 -3 c3 -8 1 -15 -4 -15 -6 0 -10 7 -10 15 0 8 2 15 4 15
2 0 6 -7 10 -15z m8492 -27 c1 -46 12 -142 33 -283 10 -66 17 -139 16 -162 -1
-24 1 -43 5 -43 3 0 7 -12 7 -27 1 -16 3 -47 6 -71 4 -37 -3 -53 -9 -19 -3 20
-13 57 -40 157 -14 52 -28 106 -30 120 -3 14 -9 42 -15 62 -9 34 -6 114 8 218
3 25 5 53 5 63 0 9 2 17 6 17 4 0 8 -15 8 -32z m-4651 -47 c2 -14 14 -53 26
-86 11 -33 22 -70 24 -83 2 -13 9 -29 15 -37 7 -8 10 -15 7 -15 -4 0 0 -18 8
-40 13 -36 27 -143 41 -302 8 -89 8 -96 0 -163 -11 -84 -20 -94 -36 -43 -7 24
-17 48 -22 54 -4 6 -6 13 -3 16 3 3 -2 22 -11 44 -27 63 -46 145 -49 209 -2
33 -4 60 -5 60 -3 0 -8 102 -14 295 -4 111 -2 157 4 142 6 -13 12 -36 15 -51z
m890 22 c4 -21 11 -51 15 -68 8 -27 14 -51 25 -110 3 -11 7 -38 10 -60 3 -22
12 -67 20 -100 25 -100 43 -218 38 -245 -3 -14 -6 -52 -7 -85 -1 -33 -3 -89
-4 -125 l-3 -65 -25 65 c-14 36 -30 73 -35 83 -8 15 -28 112 -44 217 -2 14 -7
43 -11 65 -11 67 -5 465 8 465 4 0 10 -17 13 -37z m3836 0 c6 -21 25 -65 41
-98 35 -72 47 -156 48 -319 0 -121 -7 -149 -15 -60 -2 27 -5 49 -5 49 -2 0
-10 39 -12 63 -1 12 -6 22 -11 22 -4 0 -6 4 -3 9 3 5 -4 51 -15 102 -11 52
-22 103 -23 114 -2 11 -6 27 -9 35 -3 8 -8 34 -11 58 -3 24 -8 47 -11 53 -4 5
-2 9 4 9 5 0 15 -17 22 -37z m-8557 -220 c19 -285 19 -304 0 -238 -15 53 -17
60 -36 140 -16 69 -13 231 6 320 3 11 5 22 5 24 5 26 12 -43 25 -246z m-2914
142 c18 -44 37 -84 41 -89 5 -6 9 -16 9 -24 0 -12 38 -103 62 -146 5 -10 12
-30 14 -44 3 -15 9 -31 13 -37 22 -27 73 -176 77 -225 2 -30 6 -68 9 -85 5
-29 5 -30 -6 -5 -26 57 -39 88 -39 96 0 4 -12 32 -26 62 -14 29 -27 61 -29 71
-1 9 -12 36 -23 61 -29 64 -112 272 -117 293 -2 9 -7 22 -11 28 -7 11 -16 135
-10 128 2 -2 18 -40 36 -84z m1093 -295 c-2 -190 -10 -317 -18 -308 -5 5 -16
66 -21 113 -2 22 -5 56 -8 75 -13 91 -18 255 -11 355 l8 110 26 -70 c25 -68
26 -76 24 -275z m-528 213 c2 -15 13 -55 24 -87 12 -33 21 -78 20 -100 l0 -41
-15 45 c-8 25 -16 59 -18 75 -2 17 -7 38 -11 48 -4 10 -8 31 -9 47 0 17 -4 30
-9 30 -4 0 -5 5 -2 11 10 15 17 5 20 -28z m8212 25 c0 -7 12 -40 27 -73 50
-107 58 -142 51 -209 -4 -33 -8 -73 -9 -88 -1 -28 -15 -40 -17 -15 -1 20 -6
49 -17 112 -12 65 -23 135 -26 175 -2 14 -6 36 -10 50 -16 54 -17 60 -8 60 5
0 9 -6 9 -12z m-3148 -68 c0 -14 0 -27 1 -30 4 -6 10 -84 23 -260 4 -52 3 -59
-5 -35 -5 17 -21 56 -34 88 -14 31 -23 61 -19 66 3 5 1 13 -5 16 -6 4 -9 21
-6 38 3 18 11 67 18 110 10 61 14 72 21 55 4 -12 7 -34 6 -48z m-1071 28 c1
-17 7 -45 36 -155 13 -51 19 -90 15 -87 -5 3 -9 9 -9 13 0 5 -10 30 -22 57
l-22 49 -7 -30 c-4 -16 -5 13 -4 65 2 52 4 96 4 98 2 7 8 0 9 -10z m-3788 -75
c0 -14 -3 -23 -7 -19 -10 10 -11 46 -1 46 4 0 8 -12 8 -27z m5538 -10 c0 -5 2
-17 6 -28 4 -11 12 -32 18 -46 5 -15 10 -63 11 -108 1 -44 5 -81 8 -81 4 0 7
-28 8 -62 1 -35 3 -81 6 -103 11 -95 14 -155 6 -155 -4 0 -8 12 -8 28 -2 35
-9 92 -29 226 -8 60 -14 120 -11 133 2 13 0 26 -5 29 -5 3 -8 20 -8 37 0 31
-5 92 -10 112 -3 14 -1 25 5 25 3 0 4 -3 3 -7z m3586 -102 c15 -51 29 -101 31
-111 2 -10 8 -27 14 -38 6 -11 8 -22 5 -24 -2 -3 7 -43 21 -89 15 -46 33 -106
42 -134 8 -27 17 -70 20 -95 2 -25 10 -83 18 -130 15 -87 24 -167 31 -255 3
-50 9 -105 17 -180 16 -126 19 -225 8 -225 -6 0 -11 8 -12 18 0 9 -2 28 -5 42
-11 66 -13 76 -18 95 -15 59 -48 215 -52 244 -2 18 -6 37 -9 41 -3 5 -2 11 2
13 9 6 9 311 0 342 -3 11 -10 38 -15 60 -5 22 -19 73 -30 113 -11 39 -18 72
-15 72 3 0 1 6 -5 13 -5 6 -12 26 -15 42 -3 17 -8 37 -11 45 -3 8 -10 34 -16
58 -14 53 -26 54 -35 2 -4 -22 -10 -40 -13 -40 -9 0 -8 142 0 155 3 6 5 25 3
43 -4 52 9 26 39 -77z m-1765 82 c-1 -26 8 -85 26 -188 8 -49 18 -115 20 -145
3 -30 8 -71 11 -90 2 -19 6 -52 9 -72 2 -20 6 -42 10 -48 3 -5 1 -10 -4 -10
-6 0 -11 3 -12 8 0 4 -3 16 -5 27 -3 11 -5 32 -5 47 0 15 -4 30 -9 33 -5 3 -7
11 -5 18 3 7 -3 51 -13 98 -10 48 -18 98 -17 113 0 14 -3 26 -8 26 -5 0 -8 10
-7 23 1 12 1 24 0 27 -3 5 -8 34 -13 73 -2 12 -1 27 2 32 6 10 7 16 10 35 2
17 10 11 10 -7z m-5706 -121 c3 -26 7 -54 10 -62 11 -31 16 -90 6 -85 -5 4 -9
14 -9 23 0 9 -7 26 -15 36 -11 15 -15 46 -14 120 1 84 3 94 10 58 4 -23 10
-64 12 -90z m9617 78 c0 -5 -5 -10 -11 -10 -5 0 -7 5 -4 10 3 6 8 10 11 10 2
0 4 -4 4 -10z m8 -26 c-3 -3 0 -29 8 -57 9 -33 12 -73 8 -110 -8 -68 -13 -68
-19 -1 -5 54 -13 125 -16 140 -3 20 2 34 13 34 6 0 9 -3 6 -6z m-7515 -352
c-5 -67 -5 -126 0 -131 4 -4 9 -19 11 -32 2 -13 6 -31 9 -39 10 -23 79 -234
81 -245 1 -5 7 -26 13 -45 15 -47 22 -115 28 -300 4 -110 3 -151 -4 -140 -12
16 -31 79 -36 119 -2 14 -4 27 -6 29 -1 1 -3 7 -4 12 -1 6 -4 12 -5 15 -1 3
-4 10 -5 15 -1 6 -3 11 -5 13 -1 1 -3 11 -4 22 -2 11 -12 56 -24 100 -19 74
-25 101 -38 165 -2 14 -12 59 -21 100 -25 110 -23 333 4 605 l8 80 3 -110 c1
-60 -1 -165 -5 -233z m383 291 c-3 -4 -1 -12 5 -20 9 -9 8 -13 0 -13 -6 0 -11
3 -12 8 0 4 -3 21 -5 37 -3 25 -2 27 7 12 6 -10 8 -21 5 -24z m24 -47 c0 -3
-4 -8 -10 -11 -5 -3 -10 -1 -10 4 0 6 5 11 10 11 6 0 10 -2 10 -4z m4607 -93
c-2 -16 -4 -3 -4 27 0 30 2 43 4 28 2 -16 2 -40 0 -55z m-3809 10 c3 -44 -3
-42 -11 5 -4 17 -3 32 1 32 4 0 9 -17 10 -37z m112 -5 c6 -24 14 -50 17 -58 3
-8 5 -18 5 -22 -1 -4 9 -40 22 -80 13 -40 29 -97 36 -125 6 -29 15 -53 19 -53
4 0 7 -43 7 -95 -1 -52 -4 -95 -8 -95 -5 0 -8 6 -9 13 0 6 -3 21 -5 32 -3 11
-7 38 -10 59 -2 22 -13 77 -25 123 -11 46 -17 88 -14 93 3 5 1 11 -4 15 -5 3
-10 13 -10 23 1 22 -10 82 -18 102 -3 8 -7 26 -8 40 -1 14 -6 36 -9 48 -4 12
-5 22 -2 22 3 0 10 -19 16 -42z m-903 10 c-3 -8 -6 -5 -6 6 -1 11 2 17 5 13 3
-3 4 -12 1 -19z m3717 -153 c4 -82 9 -163 11 -180 11 -101 14 -196 5 -190 -5
3 -10 12 -10 19 0 7 -8 28 -17 47 -12 23 -17 56 -16 104 0 39 1 130 2 203 1
117 5 162 16 150 2 -2 6 -70 9 -153z m-6204 115 c0 -5 -5 -10 -11 -10 -5 0 -7
5 -4 10 3 6 8 10 11 10 2 0 4 -4 4 -10z m9015 -50 c3 -5 1 -10 -4 -10 -6 0
-11 5 -11 10 0 6 2 10 4 10 3 0 8 -4 11 -10z m-1865 -242 c7 -13 15 -52 16
-88 2 -36 6 -96 9 -135 6 -66 -5 -88 -12 -24 -1 17 -12 82 -23 144 -11 62 -20
116 -20 119 0 14 16 4 30 -16z m-10785 -7 c-3 -5 -2 -12 3 -15 5 -3 9 -29 11
-58 3 -60 -10 -59 -15 1 -1 22 -5 50 -9 61 -4 12 -2 20 5 20 6 0 9 -4 5 -9z
m4919 -323 c3 -13 5 -25 6 -28 2 -3 2 -8 1 -12 0 -5 4 -8 10 -8 5 0 7 -4 4
-10 -3 -5 -1 -19 5 -30 12 -23 5 -60 -12 -60 -6 0 -8 3 -5 7 4 3 2 12 -4 19
-6 7 -12 28 -14 46 -6 50 -16 111 -21 133 -3 14 0 12 11 -7 8 -15 17 -37 19
-50z m7199 -14 c1 -38 6 -74 10 -81 4 -6 3 -14 -2 -18 -5 -3 -8 -14 -6 -25 6
-30 -9 -24 -22 9 -9 25 -7 88 6 190 1 2 3 2 6 -1 2 -2 6 -36 8 -74z m361 -168
c5 -84 5 -88 -10 -68 -12 17 -14 37 -10 80 3 31 5 63 5 71 2 39 9 -4 15 -83z
m-7924 50 c0 -6 12 -29 26 -50 l26 -39 -21 -41 c-13 -25 -21 -34 -22 -23 -2
18 -5 35 -9 40 -1 1 -3 11 -4 22 -3 25 -16 84 -23 110 -5 17 -4 18 11 6 9 -7
16 -19 16 -25z m7087 -18 c-3 -8 -6 -5 -6 6 -1 11 2 17 5 13 3 -3 4 -12 1 -19z
m-6230 -10 c-3 -8 -6 -5 -6 6 -1 11 2 17 5 13 3 -3 4 -12 1 -19z m1901 -233
c0 -113 -4 -205 -8 -205 -4 0 -15 18 -25 40 -10 22 -21 40 -25 40 -7 0 -6 18
4 73 2 12 7 40 10 62 4 22 11 60 17 85 5 25 12 59 14 75 5 37 4 35 10 35 2 0
4 -92 3 -205z m-4273 159 c28 -119 34 -159 25 -168 -7 -7 -10 -3 -11 12 -2 34
-3 40 -11 47 -4 4 -4 13 -1 21 3 8 1 14 -3 14 -5 0 -8 18 -8 40 1 22 -2 40 -8
40 -5 0 -6 5 -3 11 8 13 14 8 20 -17z m11002 -51 c-2 -16 -4 -3 -4 27 0 30 2
43 4 28 2 -16 2 -40 0 -55z m-12262 -188 c4 -12 -6 -6 -28 17 -30 31 -36 45
-37 85 -3 74 -1 73 29 -7 15 -41 31 -84 36 -95z m8025 40 c7 -14 17 -25 22
-25 4 0 8 -5 8 -10 0 -6 11 -23 25 -38 27 -28 26 -40 -5 -101 l-17 -33 -22 88
c-12 49 -26 101 -31 117 -10 34 2 35 20 2z"/>
</g>
</svg>
